<?xml version="1.0" encoding="utf-8"?>
<!-- Generator: Adobe Illustrator 26.0.3, SVG Export Plug-In . SVG Version: 6.00 Build 0)  -->
<svg version="1.1" id="Layer_1" xmlns="http://www.w3.org/2000/svg" xmlns:xlink="http://www.w3.org/1999/xlink" x="0px" y="0px"
	 viewBox="0 0 24 24" style="enable-background:new 0 0 24 24;" xml:space="preserve">
<style type="text/css">
	.st0{fill:none;stroke:#FFFFFF;stroke-width:2;stroke-linecap:round;stroke-miterlimit:10;}
	.st1{fill:none;stroke:#FFFFFF;stroke-width:0.75;stroke-linecap:round;stroke-miterlimit:10;}
	
		.st2{opacity:0.5;fill:none;stroke:#FFFFFF;stroke-width:0.5;stroke-linecap:round;stroke-miterlimit:10;enable-background:new    ;}
	
		.st3{opacity:0.25;fill:none;stroke:#FFFFFF;stroke-width:0.5;stroke-linecap:round;stroke-miterlimit:10;enable-background:new    ;}
</style>
<path class="st0" d="M1.4,22.2c5.5,0,12.4-5.1,14.2-7.8s3.7-11.8,7.4-12"/>
<path class="st1" d="M1.4,16.6c0.3-0.5,0.7-1,1.4-1.1c1.1-0.2,3.1,1.2,4.3,1.2s2-1.6,3.3-1.9c0.7-0.2,2.3-0.5,4,1"/>
<path class="st2" d="M1.4,13.2c0.3-0.5,0.8-1,1.5-1.1c1.3-0.2,3.4,1.2,4.8,1.2s2.2-1.6,3.7-1.9c0.8-0.2,2.6-0.5,4.4,1"/>
<path class="st3" d="M1.4,9.9c0.4-0.5,0.9-1,1.7-1.1C4.5,8.6,6.9,10,8.5,10c1.5,0,2.5-1.6,4.1-1.9c0.9-0.2,2.9-0.5,4.9,1"/>
</svg>
