<svg xmlns="http://www.w3.org/2000/svg" width="24" height="24" viewBox="0 0 24 24">
  <path d="M11 21.7c-.3 0-.5-.1-.9-.2s-1.9-.7-2.2-.8c-.3-.1-.7-.2-.9-.2-.2 0-.3 0-.9.2-.7.2-.9.2-1.3.1-.1-.1-.3-.2-.4-.4-.1-.1-.1-.1-.1-.3 0-.3 0-.3.2-.5.1-.2.3-.2.8-.4 1-.3 1.3-.3 1.9-.3.3 0 .4 0 .7.1.2 0 .4 0 .5.1.1 0 .3.1.4.2l1.8.6.3.1h.8c.8 0 .8 0 1.1-.1s.8-.2 2-.6c1.3-.4 1.3-.4 1.8-.4.8 0 1.6.1 2.2.3.6.2.8.4.8.8 0 .3-.1.5-.5.7-.1.1-.2.1-.4.1s-.2 0-.6-.1c-.4-.1-.7-.2-1.3-.2-.5 0-.4-.1-2.1.5-1.1.4-1.5.5-2.1.6.1.1-1.2.2-1.6.1zm-9.6-3.1c-.3-.1-.7-.4-.8-.7-.1-.2 0-.5 0-.7.1-.2.2-.3.4-.4.1 0 1-.4 2.1-.8 2.3-.9 2.3-.9 3.1-1l.7-.2V14v-3.6l.1-.2c.2-.4 1-.5 1.4-.1.2.2.2.3.3.6v4.4s2.4.9 2.5 1c.6.1 1.3.1 1.8 0 .3-.1 2.4-.9 2.4-.9V13v-2.3c.1-.4.4-.7.8-.7s.8.3.9.7c0 .1 0 .5.1 2.1v2h.3c.3 0 .6.1 1 .2.4.2 4.4 1.8 4.4 1.8.4.2.6.8.4 1.4-.2.5-.7.7-1.3.6-.1 0-.9-.4-2-.8-1-.4-2-.7-2.1-.8-.5-.2-1.3-.2-1.8 0-.1 0-.7.2-1.4.5-.6.2-1.3.5-1.4.5-1 .3-2.1.3-3.1 0-.1 0-.8-.3-1.5-.6-.9-.6-1.2-.6-1.5-.7-.3 0-.8 0-1.1.1-.2 0-.9.3-2.3.8-1.1.4-2.1.8-2.2.8h-.2zm4.3-9.3c-.1 0-.3-.2-.4-.3-.3-.2-.3-.4-.3-.6 0-.3 0-.3 1.7-2 .8-.8 2.1-2 2.7-2.6.6-.6 1.1-1.1 1.3-1.1.4-.3.9-.4 1.5-.4.4 0 .9.2 1.1.4.1.1 1.4 1.3 2.8 2.7l2.8 2.7c.1.1.1.2.1.3 0 .2 0 .2-.1.3-.1.2-.3.4-.5.4h-5.1l-.1-.1c-.2-.1-.3-.2-.4-.4 0-.1-.1-.1-.1-.3 0-.2 0-.2.1-.4.2 0 .4-.1.5-.2.1-.1.1-.1 1.5-.1h1.4c0-.1-3.7-3.6-3.9-3.7-.2-.1-.4-.1-.6 0-.1 0-.5.5-2.3 2.2C8.2 7.3 7 8.4 6.7 8.7c-.3.4-.5.5-.6.6-.1 0-.3.1-.4 0z"/>
</svg>
