<?xml version="1.0" encoding="UTF-8"?>
<svg version="1.1" viewBox="0 0 24 24" xmlns="http://www.w3.org/2000/svg" xmlns:cc="http://creativecommons.org/ns#" xmlns:dc="http://purl.org/dc/elements/1.1/" xmlns:rdf="http://www.w3.org/1999/02/22-rdf-syntax-ns#">
<metadata>
<rdf:RDF>
<cc:Work rdf:about="">
<dc:format>image/svg+xml</dc:format>
<dc:type rdf:resource="http://purl.org/dc/dcmitype/StillImage"/>
<dc:title/>
</cc:Work>
</rdf:RDF>
</metadata>
<path d="m10.06 13.582c0.043-0.6452-0.085334-6.0715-0.097154-6.9814-0.023016-1.1092-1.7383-1.0919-1.7435-0.062689-6.999e-4 0.7214 0.010718 6.2536 0.0018 7.0285 1.1044 0.01428 1.097 0.02578 1.8389 0.01563z" stroke-width=".7424"/>
<path d="m16.936 8.5386c-0.10006-0.13677-1.1748-0.23154-1.8366-0.89797-0.25973-0.26153-0.65804-0.85926-1.0043-1.5221-0.25713-0.49224-0.17403-1.1228-0.80465-1.9689-0.98119-1.3165-2.1294-0.76148-2.8215-0.2055-0.25933 0.92036-0.24503 0.95779-0.16852 1.6481 0.1149 1.0365 0.60517 1.5173 0.8429 1.8035 0.69744 0.53868 0.99075 0.70073 2.1305 1.192 1.0915 0.31956 0.7955 0.24924 1.6985 0.34143 0.71008-0.029656 1.3896-0.18464 1.9636-0.39056z" stroke-width=".59533"/>
<path d="m0.41905 5.9393c1.3896-0.13911 1.533-0.098416 2.5859-0.84104 0.41317-0.29144 0.77089-1.0419 1.3702-1.9261 0.75247-1.1101 1.6912-2.3293 2.996-2.599 1.5933-0.32936 2.5562 0.80946 3.2278 1.9872-0.56708 1.2396-0.19866 0.6555-0.73218 1.6338-0.77233 1.4919-2.2054 2.0744-3.4446 2.6456-1.2036 0.57139-2.4272 0.59929-3.487 0.31304-0.76934-0.2183-1.8275-0.88155-2.516-1.2135z" stroke-width=".81664"/>
<path d="m21.934 13.949c-0.90306 0.0165-19.039 0.02143-19.949 0.03321-1.1092 0.02302-0.99602 1.5085 0.033203 1.5137 0.071013 6.9e-5 1.8666 0.01703 2.2402 0.01763 0.24854 0.42066 0.52458 0.91566 0.75 1.2949-0.40015 0.48804-0.98911 1.1459-1.3457 1.5391-0.62511 0.3601-0.22292 0.13396-0.89844 0.51367-0.83081 0.4372-0.1985 1.646 0.5957 1.168 0.21456-0.10552 0.17664-0.10127 0.3125-0.16797 0.31298 0.38816 0.65137 0.77228 1.0352 1.3125-0.16365 0.18581-0.2988 0.33993-0.61914 0.71289-0.52875 0.59951 0.32743 1.6158 1.0117 0.94531 0.386-0.40234 0.54509-0.56739 0.95312-0.97852 0.72195-0.18551 1.4962-0.45916 2.0977-0.66797-0.16386 0.42588-0.37961 1.1605-0.5509 1.6148-0.3247 0.94151 1.0371 1.2974 1.3631 0.40047 0.25667-0.77808 0.50658-1.6283 0.76008-2.2301 1.0019 0.15939 2.9103 0.37996 3.873 0.50586 0.55916 0.54093 1.1556 1.0442 1.6113 1.4531 0.82414 0.74008 1.7952-0.35216 1.0101-1.0177-0.50911-0.39001-0.93042-0.79758-1.3089-1.1678 1.3482 0.22172 3.3891 0.58379 4.0548 0.70596 0 0 0.4059 0.28213 0.76178 0.64203 0.80871 0.71767 1.74-0.13198 0.98655-0.76616-0.3062-0.26689-0.01196 0.0094-0.51759-0.45084-0.24837-0.77107-0.42217-2.2694-0.51416-2.8377 0.25498 0.13554 0.30174 0.13523 0.534 0.26956 0.92998 0.46026 1.412-0.7624 0.65998-1.1166-0.72629-0.35871-0.7238-0.36256-1.4331-0.72075-0.2485-0.50675-0.27732-0.53503-0.48542-0.94245 0.86375-4.2e-5 2.9456 0.0037 3.1016 2e-3 1.2778 0.0126 1.2628-1.559-0.12305-1.5801zm-16.166 1.5664c1.5627 0.0023 2.8605-0.03904 5.4085-0.03576-0.22945 0.48231-0.35291 0.79485-0.5921 1.2812-0.79342 0.27954-1.3277 0.52678-1.9727 0.64693-0.70534-0.26915-1.546-0.61971-2.1405-0.83963-0.25844-0.39634-0.40643-0.59931-0.70312-1.0527zm11.633 0.0098c0.16815 0.31898 0.35777 0.85441 0.50869 1.1274-1.2832 0.45384-3.8164 1.3455-4.3345 1.5741-0.40929-0.39267-1.0223-0.89647-1.5355-1.3793 0.25119-0.5117 0.4881-0.85013 0.68818-1.3152 1.0108-0.01948 3.614-0.0076 4.6731-0.0071zm-11.426 2.3242c0.59159 0.26108 1.1798 0.41545 1.9629 0.7793 0.00419 0.0014 0.00755 6.04e-4 0.011719 2e-3 0.11638 0.33137 0.23477 0.6751 0.35156 1.0176-0.59362 0.20646-1.6299 0.50381-2.4102 0.74805-0.33705-0.40403-0.69665-0.85649-1.041-1.2832 0.30045-0.34183 0.8038-0.91072 1.125-1.2637zm12.389 0.03711c0.09303 0.59308 0.23624 1.3288 0.35559 2.1207-1.0038-0.19393-3.227-0.56232-4.3748-0.75132 1.134-0.39557 3.0551-1.0346 4.0192-1.3694zm-7.2227 0.04102c0.43315 0.3729 0.85974 0.74754 1.3242 1.1465 0.18068 0.30843 0.3765 0.6717 0.54101 0.96875-1.1058-0.15369-2.5059-0.33984-3.2617-0.46294-0.10626-0.31125-0.21716-0.6551-0.33789-1.0137 0.6428-0.19933 1.1995-0.42317 1.7344-0.63868z" stroke-width=".7424"/>
</svg>
