<svg xmlns="http://www.w3.org/2000/svg" width="24" height="24" viewBox="0 0 24 24">
  <path d="M20.7 23.5c-.8 0-1.5-.3-2-.8-.7.6-1.5.8-2.2.8-.8 0-1.5-.3-2-.8-.7.6-1.5.8-2.2.8-.8 0-1.5-.3-2-.8-.7.6-1.5.8-2.2.8-.8 0-1.5-.3-2-.8-.7.6-1.5.8-2.2.8-.6 0-1-.4-1-1 0-.5.4-1 1-1 .4 0 1.3-.2 1.3-1.4v-.3c0-.5.5-1 1-.9.5 0 1 .5 1 1v.2c0 .3.1.9.3 1.2.1.1.2.2.6.2.4 0 1.3-.2 1.3-1.4v-.3c0-.5.5-1 1-.9.5 0 1 .5 1 1v.2c0 .3.1.9.3 1.2.1.1.2.2.6.2s1.3-.2 1.3-1.4v-.3c0-.5.5-1 1-.9.5 0 1 .5 1 1v.2c0 .3.1.9.3 1.2.1.1.2.2.6.2.4 0 1.3-.2 1.3-1.4v-.3c0-.5.5-1 1-.9.5 0 1 .5 1 1v.2c0 .3.1.9.3 1.2.1.1.2.2.6.2.6 0 1 .4 1 1s-.5 1-1 1z"/>
  <path d="M23.2 14.4l-2-.7.4-2.9c0-.1 0-.4-.3-.7-.3-.2-.6-.2-.7-.2H14c-.1 0-.3 0-.7.2-.3.3-.1.5-.1.6l.8 6.7c.1.4.3.7.8.7H20c.4 0 .7-.3.8-.7l.3-2.2 1.7.5c.1 0 .3 0 .3-.1l.2-.8c.1-.2 0-.4-.1-.4zm-3.8 1.5c0 .3-.3.6-.7.6h-2.5c-.3 0-.7-.1-.8-.5l-.5-4.1c0-.3.2-.7.7-.7h3.8c.3 0 .5.2.4.7l-.2 1.3-1-.3c-.2-.5-.6-.9-1.3-.9-.8 0-1.4.6-1.4 1.4 0 .8.7 1.4 1.4 1.4.4 0 .7-.2 1-.4l1.1.4v1.1z"/>
  <path d="M14.2 2.9L8.2.6c-.6-.2-1.2 0-1.4.6-.2.5.1 1.1.6 1.3l1.9.8-2.1 5-2.5-1.1c-.5-.2-1.2 0-1.4.6L.8 13.7c-.2.4-.1.8.2 1.1L3.7 18c.2.2.5.4.8.4h.1l4.3-.3c.4 0 .7-.3.9-.6l2.5-5.9c.1-.3.1-.6 0-.8a.9.9 0 00-.6-.6L9.2 9.1l2.1-4.9v-.1l2.1.8c.1 0 .3.1.4.1.4 0 .8-.3 1-.7.2-.5-.1-1.2-.6-1.4zm-4.7 9.7l-1.2 2.9c-.1.3-.5.6-.8.6l-2 .1c-.3 0-.6-.1-.8-.3l-1.3-1.5c-.2-.3-.3-.7-.2-1l1.3-3.2c.1-.4.6-.5.9-.4l1 .4c0 .1-.1.2-.1.3 0 .6.5 1.1 1.1 1.1.4 0 .7-.2.9-.5l.7.2c.5.2.7.8.5 1.3z"/>
</svg>
