<?xml version="1.0" encoding="UTF-8" standalone="no"?>
<svg
   xmlns:dc="http://purl.org/dc/elements/1.1/"
   xmlns:cc="http://creativecommons.org/ns#"
   xmlns:rdf="http://www.w3.org/1999/02/22-rdf-syntax-ns#"
   xmlns:svg="http://www.w3.org/2000/svg"
   xmlns="http://www.w3.org/2000/svg"
   xmlns:sodipodi="http://sodipodi.sourceforge.net/DTD/sodipodi-0.dtd"
   xmlns:inkscape="http://www.inkscape.org/namespaces/inkscape"
   viewBox="0 0 32 32"
   version="1.1"
   id="svg835"
   sodipodi:docname="wwqa.svg"
   inkscape:version="1.0.1 (3bc2e813f5, 2020-09-07)">
  <metadata
     id="metadata841">
    <rdf:RDF>
      <cc:Work
         rdf:about="">
        <dc:format>image/svg+xml</dc:format>
        <dc:type
           rdf:resource="http://purl.org/dc/dcmitype/StillImage" />
        <dc:title></dc:title>
      </cc:Work>
    </rdf:RDF>
  </metadata>
  <defs
     id="defs839" />
  <sodipodi:namedview
     pagecolor="#ffffff"
     bordercolor="#666666"
     borderopacity="1"
     objecttolerance="10"
     gridtolerance="10"
     guidetolerance="10"
     inkscape:pageopacity="0"
     inkscape:pageshadow="2"
     inkscape:window-width="2560"
     inkscape:window-height="1377"
     id="namedview837"
     showgrid="false"
     inkscape:zoom="22.96875"
     inkscape:cx="16"
     inkscape:cy="10.77551"
     inkscape:window-x="-8"
     inkscape:window-y="-8"
     inkscape:window-maximized="1"
     inkscape:current-layer="svg835" />
  <path
     style="line-height:normal;-inkscape-font-specification:'Bitstream Vera Sans';text-indent:0;text-align:start;text-transform:none;stroke-width:1.83673;stroke-miterlimit:4;stroke-dasharray:none"
     d="m 15.869386,1.4312925 c -3.656597,0 -7.0821637,0.9033242 -9.6348092,2.7816747 -2.5526459,1.8783506 -4.1515837,4.7822438 -4.1515837,8.4192048 0,3.326478 1.7282043,5.922526 2.6632815,7.083998 -0.07747,0.382885 -0.1566686,0.789459 -0.1566686,1.261027 0,1.413848 0.8950198,2.60245 2.0757907,3.263832 0.8288089,0.464237 1.8997633,0.54686 2.9374437,0.6676 v 2.633321 0.482157 l 0.3916582,0.370888 c 0,0 0.5433694,0.496617 1.4883024,0.853048 0.944939,0.356434 2.379544,0.667603 4.386585,0.667603 2.007041,0 3.441647,-0.311169 4.386581,-0.667603 0.944931,-0.356431 1.488302,-0.853048 1.488302,-0.853048 l 0.391659,-0.370888 V 27.54195 24.908629 c 1.037682,-0.120748 2.108636,-0.203363 2.937443,-0.6676 1.180773,-0.661382 2.075792,-1.849984 2.075792,-3.263832 0,-0.471568 -0.07918,-0.878142 -0.156664,-1.261027 0.935079,-1.161472 2.663285,-3.75752 2.663285,-7.083998 0,-3.6374948 -1.598927,-6.5406777 -4.151584,-8.4192048 C 22.951543,2.3344418 19.525989,1.4312925 15.869388,1.4312925 Z m 0,2.9970626 c 3.224066,0 5.781369,0.6567046 7.775089,2.123903 1.993719,1.4671984 2.771978,2.7342388 2.771978,5.7335989 0,1.613558 0.186104,3.11105 -0.4031,4.186142 -0.06278,-0.293646 -0.117509,-0.339351 -0.117509,-0.79853 l -3.092786,0.138534 c 0,1.467495 1.013515,2.306328 1.33032,3.01404 0.316802,0.707711 0.06952,1.07558 0.06952,2.0819 0,0.570562 -0.450577,0.939825 -1.081462,1.293199 -0.630884,0.353372 -1.561188,-0.228418 -2.67846,0.247108 l -0.813683,0.346314 -0.439626,1.117587 0.126299,3.110555 c -0.100465,0.05484 0.279237,-0.105319 0,0 -0.628285,0.23699 -1.720035,0.519247 -3.4466,0.519247 -1.726566,0 -2.818318,-0.282257 -3.446599,-0.519247 -0.279236,-0.105335 0.313329,0.148349 0,0 L 12.370662,24.02495 12.109438,22.794564 10.929412,22.44825 c -1.1701976,-0.343427 -1.8277658,0.037 -2.4586499,-0.316369 -0.630885,-0.353376 -0.7883782,-0.653376 -0.7883782,-1.223938 0,-1.00632 0.1190847,-1.374189 0.4358837,-2.0819 0.3168057,-0.707712 0.744154,-1.754332 0.744154,-3.221828 H 6.1359933 c 0,0.459179 0.062791,-0.293644 0,0 -0.5892,-1.075098 -0.9602227,-1.635537 -0.9602227,-3.249095 0,-2.9987107 1.0713307,-4.0587341 3.0650591,-5.5258098 C 10.23456,5.3622326 12.059146,4.4283551 15.283212,4.4283551 Z M 12.109459,15.673469 c -1.384363,0 -2.5066145,1.062741 -2.5066145,2.373697 0,1.310955 1.1222515,2.373696 2.5066145,2.373696 1.384369,0 2.506617,-1.062741 2.506617,-2.373696 0,-1.310956 -1.122248,-2.373697 -2.506617,-2.373697 z m 7.519855,0 c -1.384367,0 -2.506618,1.062741 -2.506618,2.373697 0,1.310955 1.122251,2.373696 2.506618,2.373696 1.384363,0 2.506614,-1.062741 2.506614,-2.373696 0,-1.310956 -1.122251,-2.373697 -2.506614,-2.373697 z m -3.759928,4.45068 c 0,0 -1.566636,1.891539 -1.566636,2.781676 0,0.445068 0.313326,0.6676 0.626656,0.6676 0.522628,0 0.93998,-0.890133 0.93998,-0.890133 0,0 0.417352,0.890133 0.93998,0.890133 0.31333,0 0.626658,-0.222532 0.626658,-0.6676 0,-0.890137 -1.566638,-2.781676 -1.566638,-2.781676 z"
     overflow="visible"
     font-family="'Bitstream Vera Sans'"
     id="path833"
     sodipodi:nodetypes="ssscssccccsssccccsscssssssscccssssccccsscccsssscccsssssssssssssscsscssc" />
</svg>
