<?xml version="1.0" encoding="UTF-8"?>
<svg version="1.1" viewBox="0 0 24 24" xmlns="http://www.w3.org/2000/svg" xmlns:cc="http://creativecommons.org/ns#" xmlns:dc="http://purl.org/dc/elements/1.1/" xmlns:rdf="http://www.w3.org/1999/02/22-rdf-syntax-ns#">
<metadata>
<rdf:RDF>
<cc:Work rdf:about="">
<dc:format>image/svg+xml</dc:format>
<dc:type rdf:resource="http://purl.org/dc/dcmitype/StillImage"/>
<dc:title/>
</cc:Work>
</rdf:RDF>
</metadata>
<path d="m4.8231 4.8642c1.3205 1.7938 2.1563 2.9096 3.3108 4.4791 1.5028-0.58109 3.6168-1.2539 4.7777-1.6567l2.5478 3.466-1.8895 1.4773 5.6511 1.5486-0.13669-5.8576-1.7336 1.3547c-1.2469-1.358-3.6734-4.8172-3.6734-4.8172s-3.3721 1.2018-4.6654 1.6243c-0.81092-1.078-1.3942-1.7521-2.2917-2.9703-1.0226-1.1907-2.9944 0.035298-1.8971 1.3518z"/>
<path d="m18.542 18.949c-1.1565-0.54386-3.1255-1.0378-5.4279-0.22238-0.98391 0.35054-1.8346 0.41408-3.293-0.06354-2.053-0.78386-4.2235-0.44143-5.1737 0.24476-0.9144 0.66518 0.16567 2.075 0.87727 1.6058 1.3701-0.80571 2.3234-0.79843 3.7071-0.16824 1.4482 0.55054 3.0511 0.77292 4.4358 0.19062 1.6698-0.75785 2.5389-0.51071 4.0248 0.2 1.1617 0.67863 2.0937-0.99472 0.84959-1.787z" stroke-width=".78418"/>
<path d="m2.1797 17.469c1.8394 0.0055 17.639-0.08501 19.311-0.12708 1.7551 0.01817 1.8181-2.2-0.11681-2.2047-1.7653-0.04727-17.279-0.02757-19.126 1e-6 -1.9385-0.02032-1.8434 2.3479-0.068033 2.3318z" stroke-width=".88487"/>
</svg>
