<svg xmlns="http://www.w3.org/2000/svg" width="24" height="24" viewBox="0 0 24 24">
  <path d="M20.5 21.1c-.8 0-1.5-.3-2-.8-.7.6-1.5.8-2.2.8-.8 0-1.5-.3-2-.8-.7.6-1.5.8-2.2.8-.8 0-1.5-.3-2-.8-.7.6-1.5.8-2.2.8-.8 0-1.5-.3-2-.8-.7.6-1.5.8-2.2.8-.6 0-1-.4-1-1 0-.5.4-1 1-1 .4 0 1.3-.2 1.3-1.4v-.3c0-.5.5-1 1-.9.5 0 1 .5 1 1v.2c0 .3.1.9.3 1.2.1.1.2.2.6.2.4 0 1.3-.2 1.3-1.4v-.3c0-.5.5-1 1-.9.5 0 1 .5 1 1v.2c0 .3.1.9.3 1.2.1.1.2.2.6.2.4 0 1.3-.2 1.3-1.4v-.3c0-.5.5-1 1-.9.5 0 1 .5 1 1v.2c0 .3.1.9.3 1.2.1.1.2.2.6.2.4 0 1.3-.2 1.3-1.4v-.3c0-.5.5-1 1-.9.5 0 1 .5 1 1v.2c0 .3.1.9.3 1.2.1.1.2.2.6.2.6 0 1 .4 1 1s-.5 1-1 1zM1.4 15.9c-.5 0-.9-.4-1-.9-.1-.5.3-1.1.9-1.1 1.2-.2 2.3-.9 2.8-1.9.2-.3.3-.6.4-.9l.3-.6c.3-.7.7-1.4 1.1-2 .5-.8 1-1.7 1.7-2.4C9 4.4 11 3.4 13.3 3c.7-.1 1.8-.2 2.8.3.3.2.5.5.5.9s-.3.7-.6.9c-.7.3-1.3.7-1.8 1.2-.3.4-.6.8-.7 1.5-.3 1.1-.3 2.3-.1 3.4.1.6.5 1.6 1.3 2.1.5.3 1.1.3 1.6.1.5-.2 1-.8 1.3-1.5.3-.8.5-1.6.6-2.5.1-.5.6-.9 1.1-.8.5.1.9.5.9 1.1-.1 1 .1 1.9.6 2.6.5.7 1.2 1.2 2 1.3.5.1.9.6.9 1.1-.1.5-.6.9-1.1.9-1.3-.2-2.6-1-3.4-2.2-.5.9-1.2 1.5-2.1 1.9-1.1.5-2.4.3-3.4-.3-1.4-.8-1.9-2.3-2.2-3.4-.3-1.4-.3-2.9.1-4.3.2-.8.5-1.4.9-1.9-1.4.4-2.5 1.1-3.4 2.1-.6.4-1.1 1.2-1.5 1.9-.4.6-.7 1.2-1 1.8-.1.2-.2.4-.2.6-.1.4-.3.7-.5 1.1a6.1 6.1 0 01-4.3 3h-.2z"/>
</svg>
