<svg xmlns="http://www.w3.org/2000/svg" width="24" height="24" viewBox="0 0 24 24">
  <path d="M12 .2a11.8 11.8 0 000 23.6A11.8 11.8 0 0012 .2zm0 21.7c-5.5 0-9.9-4.4-9.9-9.9S6.5 2.1 12 2.1s9.9 4.4 9.9 9.9-4.4 9.9-9.9 9.9zM4.9 7.3h1.8L9.9 13V7.3h1.9v9.4H10l-3.1-5.5v5.6h-2V7.3zm8.4 9.1v-1.8h.1c.5.1 1.6.4 2.3.4h.4c.7 0 1.3-.2 1.3-1 0-.6-.4-.8-1-1l-1.3-.4c-1-.3-1.8-1-1.8-2.7 0-1.9 1.4-2.7 3.1-2.7h.4c.5 0 1.6.1 2.1.4v1.8h-.1a12 12 0 00-2-.3h-.4c-.6 0-1.2.1-1.2.8 0 .5.4.7.8.9l1.3.4c1.3.4 1.9 1.2 1.9 2.7 0 2.1-1.4 2.9-3.2 2.9h-.4c-.6.1-1.7-.1-2.3-.4z"/>
</svg>
