<svg xmlns="http://www.w3.org/2000/svg" width="24" height="24" viewBox="0 0 24 24">
  <path d="M12 23.5A5.12 5.12 0 018.2 15v-4.8c0-2.2 1.8-3.9 3.9-3.9 2.1 0 3.8 1.7 3.8 3.8v5c.8.9 1.3 2.1 1.3 3.4-.1 2.7-2.4 5-5.2 5zm.1-15.3a2 2 0 00-2 2v5.6l-.3.3c-.6.6-1 1.4-1 2.3 0 1.7 1.4 3.2 3.2 3.2s3.2-1.4 3.2-3.2c0-.9-.3-1.7-1-2.3l-.3-.3V10c0-1-.8-1.8-1.8-1.8z"/>
  <path d="M12.1 10.9c-.7 0-1.2.6-1.2 1.2v4.6l-.2.2a1.97 1.97 0 001.4 3.4 2 2 0 002-2c0-.5-.2-1.1-.6-1.4l-.2-.2V12c-.1-.6-.6-1.1-1.2-1.1z"/>
  <path d="M23.2 9.5c0 2.4-2 4.5-4.5 4.5 0 0-1.1.2-1.1-1.3 0-.5.4-1 1-1 1.2 0 2.2-.9 2.3-2.1.1-1.4-.9-2.4-2.2-2.4-.3 0-.6 0-.8.1l-1.3.5-.2-1.4c-.5-2.4-2.7-4-5.2-3.7-1.1.2-2.2.9-2.9 1.8l-.4.8-.6-.2C7 5 6.7 5 6.4 5a3.29 3.29 0 00-.8 6.5c.5.1.8.5.8 1v.3c0 .6-.5 1.1-1.1 1A5.7 5.7 0 01.8 8.2C.8 5 3.3 2.7 6.4 2.7H7C8.3 1.2 10.1.5 12.1.5c2.8 0 5.4 1.8 6.2 4.5 4.8-.7 4.9 4.5 4.9 4.5z"/>
</svg>
