<svg xmlns="http://www.w3.org/2000/svg" width="24" height="24" viewBox="0 0 24 24">
  <path d="M20.3 21.2c-.8 0-1.5-.3-2-.8-.7.6-1.5.8-2.2.8-.8 0-1.5-.3-2-.8-.7.6-1.5.8-2.2.8-.8 0-1.5-.3-2-.8-.7.6-1.5.8-2.2.8-.8 0-1.5-.3-2-.8-.7.6-1.5.8-2.2.8a1 1 0 010-2c.4 0 1.2-.2 1.3-1.4v-.3c0-.5.5-1 1-.9.5 0 1 .5 1 1v.2c0 .3.1.9.3 1.2.1.1.2.2.6.2.4 0 1.2-.2 1.3-1.4v-.3c0-.5.5-1 1-.9.5 0 1 .5 1 1v.2c0 .3.1.9.3 1.2.1.1.2.2.6.2.4 0 1.2-.2 1.3-1.4v-.3c0-.5.5-1 1-.9.5 0 1 .5 1 1v.2c0 .3.1.9.3 1.2.1.1.2.2.6.2.4 0 1.2-.2 1.3-1.4v-.3c0-.5.5-1 1-.9.5 0 1 .5 1 1v.2c0 .3.1.9.3 1.2.1.1.2.2.6.2.6 0 1 .4 1 1s-.4 1-1 1zM1.5 15.9c-.5 0-.9-.4-1-.9-.1-.5.3-1 .9-1.1 1.2-.2 2.2-.9 2.9-2 .2-.3.4-.7.5-1.1l.1-.4c.2-.5.5-.9.7-1.3.1-.2.2-.4.4-.7.4-.8 1-1.7 1.6-2.4C9 4.5 11 3.5 13.2 3c.8-.1 1.9-.3 2.8.3.3.2.5.5.4.9s-.1.7-.4.8c-.8.4-1.3.7-1.8 1.2-.3.3-.5.8-.7 1.5-.3 1.2-.3 2.4-.1 3.4.2 1 .7 1.8 1.3 2.2.4.3 1 .3 1.6.1.6-.3 1-.7 1.3-1.5.3-.6.4-1.2.5-1.8 0-.2.1-.5.1-.7.1-.5.6-.8 1.1-.8.5.1.9.6.8 1.1-.1 1 .1 1.9.5 2.5.5.7 1.2 1.2 2 1.4.5.1.9.6.8 1.2-.1.5-.6.9-1.2.8-1.3-.2-2.6-1.1-3.3-2.2-.5.8-1.2 1.5-2.1 1.8-1.3.5-2.6.3-3.5-.3-1-.7-1.8-2-2.1-3.4-.3-1.3-.3-2.8.1-4.3.2-.8.5-1.4.9-1.9a9.7 9.7 0 00-3.3 2c-.5.6-1 1.4-1.5 2.1-.1.2-.2.4-.4.7-.2.4-.4.7-.6 1.1l-.1.3c-.2.4-.4.9-.6 1.4a6.1 6.1 0 01-4.3 3h.1z"/>
</svg>
