<svg xmlns="http://www.w3.org/2000/svg" width="24" height="24" viewBox="0 0 24 24">
  <path d="M9.7 5.9c0-.7.5-1.2 1.2-1.2h6.9V2.5L22.5 6l-4.7 3.5V7.1h-6.9c-.7 0-1.2-.6-1.2-1.2zm-7.8 9.3l1.7-.5c1.7-.5 3.5-.3 5 .3 2.2.9 4.6.9 6.8 0 1.6-.6 3.3-.7 5-.3l1.7.5c.7.1 1.3-.2 1.4-.9.1-.7-.2-1.3-.9-1.4l-1.7-.5a9.7 9.7 0 00-6.3.5c-1.6.7-3.5.7-5.2 0-1.8-.9-4-1-6.2-.5l-1.7.5c-.6.1-.9.7-.8 1.4-.1.5.6 1 1.2.9zm20.8 3.4l-1.7-.5a9.7 9.7 0 00-6.3.5c-1.6.7-3.5.7-5.2 0-2-.8-4.2-.9-6.3-.5l-1.7.3c-.6.2-.9.8-.8 1.5.1.7.8 1 1.4.9l1.7-.5c1.7-.5 3.5-.3 5 .3 2.2.9 4.6.9 6.8 0 1.6-.6 3.3-.7 5-.3l1.7.5c.7.1 1.3-.2 1.4-.9-.1-.6-.3-1.2-1-1.3z"/>
</svg>
