<svg xmlns="http://www.w3.org/2000/svg" width="24" height="24" viewBox="0 0 24 24">
  <path d="M4.2 23.2c-.2 0-.4-.1-.5-.2-1.3-.8-2.2-2.1-2.5-3.6-.3-1.4-.3-2.8.2-4.2v-.1c.2-.4.4-.9.8-1.4.6-.7 1.3-1.1 2-1.4 1-.4 2-.8 3.2-1 .2 0 .4-.1.6-.1.5-.1 1-.2 1.4-.4.2-.1.7-.4.8-.9 0-.4-.4-.9-.6-1.1-.2-.2-.5-.4-.7-.6-.4-.3-.7-.6-1.1-1-.8-1-1.1-1.9-1-2.8.1-1 .9-1.9 1.9-2.4.6-.2 1.1-.4 1.5-.5.2 0 .4-.1.6-.2h.1c.5-.2 1.1-.3 1.4-.6.4-.4 1-.4 1.4 0s.4 1 0 1.4c-.7.7-1.6.9-2.3 1.1h-.1c-.2.1-.4.1-.6.2-.4.1-.8.2-1.2.4-.4.3-.7.6-.7.9-.1.3.1.8.6 1.3.2.3.5.4.8.7.3.2.6.4.9.8.8.8 1.2 1.8 1.1 2.8-.1 1.1-.9 2-2 2.5-.6.3-1.2.4-1.7.5-.2 0-.4.1-.6.1-1 .2-1.9.5-2.7.8-.5.2-1 .5-1.2.8-.2.3-.4.6-.6 1-.3.9-.4 2-.2 3 .3 1 .8 1.9 1.7 2.4.5.3.6.9.3 1.4-.4.2-.7.4-1 .4z"/>
  <path d="M7.9 22.2a.9.9 0 01-.7-.3l-.3-.3c-.7-.6-1.4-1.4-1.8-2.3-.6-1.4-.5-2.8.2-3.8.7-.9 1.8-1.3 3.1-1.5.5-.1 1 .3 1.1.9s-.3 1-.9 1.1c-.8.1-1.4.3-1.8.8-.3.4-.2 1.2.1 1.7.3.6.8 1.1 1.4 1.7l.3.3c.4.4.4 1 0 1.4-.2.2-.4.3-.7.3zM20.9 23.5c-.2 0-.4-.1-.6-.2-.8-.6-1.6-1.5-2.2-2.4-.2-.3-.4-.6-.4-.7l-.1-.2c-.5-1.1-.4-2.3.3-3.6.6-.9 1.2-1.7 1.8-2.4.5-.6 1-1.2 1.2-2 .4-1.3-.2-2.9-1.5-3.8-.4-.2-.9-.4-1.4-.7-.9-.4-1.9-.9-2.7-1.8-.5-.5-.8-1.4-.6-2.1.2-1.1 1.4-1.6 1.8-1.7 1-.4 2-.6 2.9-.6.6 0 1 .4 1 1s-.4 1-1 1c-.7 0-1.3.1-2.1.4-.5.2-.6.3-.6.3 0 .1.1.2.2.3.5.6 1.2 1 2 1.3.5.4 1.1.7 1.7 1.1 2.1 1.4 3 3.9 2.3 6-.4 1.1-1 2-1.6 2.6-.6.7-1.2 1.3-1.6 2.1-.3.7-.4 1.3-.2 1.8l.1.2c0 .1.1.2.1.3 0 0 .1.1.1.2.5.8 1.1 1.4 1.8 1.9.4.3.5 1 .2 1.4-.3.2-.6.3-.9.3z"/>
  <path d="M17.4 14.5c-.2 0-.5-.1-.6-.3-.3-.3-.2-.9.1-1.2.6-.5 1-.9 1.2-1.3.2-.5-.2-1.4-1.1-1.9-.4-.3-.5-.8-.2-1.1.3-.4.8-.5 1.1-.2 1.6 1 2.2 2.6 1.7 4-.4.9-1.1 1.4-1.6 1.9-.2.1-.4.1-.6.1z"/>
</svg>
