<svg xmlns="http://www.w3.org/2000/svg" width="24" height="24" viewBox="0 0 24 24">
  <path d="M20.6 9.6c-.5-.1-1-.3-1.4-.5-.6-.3-1.2-.6-1.8-.8-.4-.1-.3-.3-.2-.5.4-.5.6-1.1.7-1.8.1-.5 0-1.1-.6-1.1-1.1-.1-1-.7-1-1.5V2.2c0-.8-.3-1.2-1.2-1.2H8.8c-.8.1-1.1.4-1.2 1.3v1.8c0 .5-.2.7-.7.8-.8.2-1 .6-.8 1.4.2.5.4 1.1.7 1.5.3.3.2.5-.1.7-1 .7-2.1 1-3.3 1.1-.5.1-.9.3-.9.9 0 .6.5.8 1 .8 1.3-.1 2.7-.4 3.8-1.2.7-.5 1.3-.5 2 0 1.9 1.2 3.8 1.2 5.7 0 .7-.4 1.4-.4 2-.1.6.3 1.2.6 1.7.9.5.2 1 .4 1.5.4.5.1 1 0 1.2-.7.2-.5-.1-.9-.8-1zM9.4 3.7c0-.9 0-.9.9-.9h3.8c.4 0 .6.1.6.5v.6c0 .3-.1.4-.4.3-.2 0-.4-.1-.5-.1-1.2-.4-2.5-.3-3.7.1-.6.2-.7.1-.7-.5zm6.1 3.6c-2 2.5-6.1 2.1-7.4-.8 2.3-.8 4.6-1 7-.3 1 .3 1 .3.4 1.1zM12 16.1c-4.9 0-5.9-2.9-5.9-3-.2-.6.1-1.1.7-1.3.5-.2 1.1.1 1.3.7 0 .1.7 1.6 3.9 1.6 3.3 0 3.9-1.5 3.9-1.6.2-.5.8-.8 1.3-.6.5.2.8.7.7 1.3 0 0-1 2.9-5.9 2.9z"/>
  <path d="M12 19.5c-6.8 0-8.1-3.1-8.2-3.4-.2-.5.1-1.1.6-1.3.5-.2 1.1.1 1.3.6 0 .1 1.1 2.1 6.3 2.1 5.3 0 6.3-2.1 6.3-2.1a1 1 0 011.4-.5c.5.2.8.8.6 1.3-.2.3-1.6 3.3-8.3 3.3z"/>
  <path d="M12 22.9C2.6 22.9.8 19.5.6 19.1c-.2-.5 0-1.1.5-1.4.5-.2 1.1 0 1.4.5.1.1 1.7 2.6 9.5 2.6 8 0 9.5-2.6 9.5-2.6.3-.5.9-.7 1.4-.4.5.3.7.8.5 1.4-.2.3-2.1 3.7-11.4 3.7z"/>
</svg>
