<svg xmlns="http://www.w3.org/2000/svg" width="24" height="24"><path d="M12.247 7.498c-.7-.048-1.224.028-1.795.26-.596.243-1.096.628-1.448 1.12-.206.288-.39.666-.442.96-.015.088-.018.192-.024.375l-.018.72-.016 2.214-.012 2.49-.01.823-.112.113c-.612.63-.982 1.35-1.118 2.185-.047.293-.042.84.01 1.133.164.9.604 1.666 1.333 2.3.79.687 1.814 1.103 2.925 1.198a6.68 6.68 0 0 0 1.057-.023c.27-.035.687-.122.93-.197 1.745-.542 2.973-1.866 3.146-3.447.03-.287.02-.77-.03-1.046-.075-.422-.225-.824-.444-1.2-.182-.313-.363-.544-.714-.92l-.08-.086-.002-.923-.02-3.447-.018-1.37-.018-.66c-.038-.39-.098-.577-.3-.938-.425-.72-1.064-1.21-1.93-1.5a3.26 3.26 0 0 0-.838-.146zm-.03 1.547c.524.06 1 .37 1.258.794a.89.89 0 0 1 .148.462c-.001-.007.003.123.006.3l.008.724.012 2.423.01 3.27c0 .062.026.12.07.162l.2.187c.635.593.87.97.974 1.504a2.84 2.84 0 0 1-.02.977c-.058.245-.286.694-.48.93-.118.144-.513.486-.696.597a3.39 3.39 0 0 1-1.499.47c-.406.033-.816-.013-1.245-.137-.803-.233-1.435-.736-1.787-1.412-.21-.402-.21-.414-.21-.995 0-.52-.007-.488.144-.864.157-.392.335-.628.824-1.083l.203-.19c.045-.042.07-.1.07-.162l.002-1.563.018-3.418.018-1.63c.007-.246.007-.237.026-.3.07-.228.197-.423.42-.62a1.78 1.78 0 0 1 .773-.398c.133-.03.56-.05.75-.03zm-.92 3.414c-.058 0-.114.023-.155.065s-.064.098-.064.157v4.902l-.14.08c-.348.195-.68.46-.858.718-.332.482-.37 1.103-.112 1.65.282.594.898 1.007 1.613 1.124a2.72 2.72 0 0 0 .907-.031 2.06 2.06 0 0 0 .931-.46c.48-.412.72-.96.655-1.535-.024-.213-.085-.443-.17-.613-.162-.324-.513-.602-.994-.872h-.002l-.103-.06V12.68c0-.06-.023-.115-.064-.157s-.097-.065-.155-.065h-.645zM22 10a4 4 0 0 1-4 4h-1v-2h1a2 2 0 0 0 1.448-3.395 2 2 0 0 0-2.168-.465l-1.15.45-.2-1.22A4 4 0 0 0 8.74 5.7l-.4.55-.66-.16A3 3 0 0 0 7 6a3 3 0 0 0-2.599 4.5A3 3 0 0 0 7 12v2A5 5 0 0 1 7 4a4.34 4.34 0 0 1 .51 0 6 6 0 0 1 10.14 2A4 4 0 0 1 22 10z" fill="#a5a5a5"/></svg>