<?xml version="1.0" encoding="UTF-8" standalone="no"?>
<svg
   xmlns:dc="http://purl.org/dc/elements/1.1/"
   xmlns:cc="http://creativecommons.org/ns#"
   xmlns:rdf="http://www.w3.org/1999/02/22-rdf-syntax-ns#"
   xmlns:svg="http://www.w3.org/2000/svg"
   xmlns="http://www.w3.org/2000/svg"
   xmlns:sodipodi="http://sodipodi.sourceforge.net/DTD/sodipodi-0.dtd"
   xmlns:inkscape="http://www.inkscape.org/namespaces/inkscape"
   width="24"
   height="24"
   viewBox="0 0 24 24"
   version="1.1"
   id="svg3715"
   sodipodi:docname="icon-theme-flooding.svg"
   inkscape:version="0.92.4 (5da689c313, 2019-01-14)">
  <metadata
     id="metadata3721">
    <rdf:RDF>
      <cc:Work
         rdf:about="">
        <dc:format>image/svg+xml</dc:format>
        <dc:type
           rdf:resource="http://purl.org/dc/dcmitype/StillImage" />
        <dc:title />
      </cc:Work>
    </rdf:RDF>
  </metadata>
  <defs
     id="defs3719" />
  <sodipodi:namedview
     pagecolor="#ffffff"
     bordercolor="#666666"
     borderopacity="1"
     objecttolerance="10"
     gridtolerance="10"
     guidetolerance="10"
     inkscape:pageopacity="0"
     inkscape:pageshadow="2"
     inkscape:window-width="1920"
     inkscape:window-height="1001"
     id="namedview3717"
     showgrid="false"
     inkscape:zoom="15.745542"
     inkscape:cx="34.574104"
     inkscape:cy="5.5205156"
     inkscape:window-x="-9"
     inkscape:window-y="-9"
     inkscape:window-maximized="1"
     inkscape:current-layer="svg3715" />
  <path
     style="fill:#a5a5a5;fill-opacity:1;stroke-width:0.02274036"
     d="m 10.950742,22.586242 c -0.324595,-0.02597 -0.533977,-0.07265 -0.949707,-0.211766 -0.4314721,-0.144384 -1.8258361,-0.659481 -2.1338571,-0.788273 -0.277523,-0.116044 -0.674647,-0.203293 -0.926761,-0.203622 -0.208162,-2.74e-4 -0.271382,0.0143 -0.907752,0.209193 -0.686977,0.210394 -0.892636,0.226435 -1.163079,0.09071 -0.132017,-0.06625 -0.310089,-0.235848 -0.38292,-0.364688 -0.05361,-0.09483 -0.05955,-0.127893 -0.05884,-0.327263 9.89e-4,-0.265567 0.02942,-0.346933 0.179333,-0.513112 0.143324,-0.158849 0.278451,-0.224881 0.803168,-0.392478 0.972539,-0.310631 1.200837,-0.348251 1.83954,-0.303111 0.283154,0.02002 0.408497,0.04151 0.688481,0.118077 0.188271,0.05149 0.429479,0.128543 0.53602,0.171244 0.106541,0.04269 0.304269,0.121927 0.439391,0.176066 0.344465,0.138017 1.3685511,0.507537 1.7420621,0.628588 l 0.312676,0.10133 h 0.804028 c 0.802957,0 0.80438,-9.2e-5 1.066022,-0.06474 0.323284,-0.07988 0.779788,-0.231854 1.904417,-0.634003 1.183117,-0.42306 1.187829,-0.42423 1.70864,-0.42423 0.776174,0 1.501305,0.118371 2.13283,0.348162 0.578186,0.210387 0.792183,0.43833 0.792622,0.84427 3.52e-4,0.323275 -0.140481,0.544759 -0.451366,0.709852 -0.12213,0.06485 -0.167773,0.07574 -0.353261,0.08421 -0.21007,0.0096 -0.218089,0.008 -0.580689,-0.118555 -0.387237,-0.135115 -0.703669,-0.201328 -1.193238,-0.249691 -0.453977,-0.04484 -0.391944,-0.06079 -2.033206,0.522742 -1.109851,0.394601 -1.386325,0.473804 -1.954233,0.559824 -0.274111,0.04152 -1.478859,0.06176 -1.860326,0.03123 z M 1.8042849,19.528394 c -0.342122,-0.06979 -0.656907,-0.382997 -0.752358,-0.748567 -0.05788,-0.221645 -0.03956,-0.496833 0.04499,-0.676289 0.07624,-0.161786 0.246691,-0.34395 0.401906,-0.429524 0.06142,-0.03384 0.981023,-0.407578 2.043569,-0.830482 2.188949,-0.871226 2.231958,-0.885196 3.048608,-0.990288 l 0.513683,-0.0661 v -0.611828 c 0,-0.336507 -0.0051,-1.221358 -0.01119,-1.966339 l -0.01118,-1.354512 0.0709,-0.155146 c 0.252342,-0.552216 0.917922,-0.693202 1.343618,-0.284614 0.167492,0.160758 0.245055,0.324082 0.27251,0.573802 0.01147,0.104559 0.0309,1.080238 0.04311,2.168166 0.01221,1.087926 0.02996,1.985929 0.03941,1.995562 0.0398,0.04054 2.2669001,0.922435 2.4404521,0.966382 0.551984,0.139777 1.164849,0.122534 1.675055,-0.04712 0.257622,-0.08566 2.288391,-0.90088 2.314832,-0.929243 0.01923,-0.02062 0.01898,-0.534197 -9.89e-4,-2.064996 -0.01463,-1.120655 -0.01894,-2.088841 -0.0095,-2.151525 0.05708,-0.38231 0.394727,-0.697353 0.777859,-0.725773 0.404586,-0.03002 0.784519,0.252519 0.880164,0.654512 0.0266,0.111745 0.03787,0.498791 0.05774,1.977967 0.01359,1.011472 0.02892,1.846131 0.03406,1.854797 0.0052,0.0087 0.142859,0.0217 0.30598,0.02894 0.32287,0.01435 0.630738,0.08454 1.029529,0.234667 0.401994,0.151333 4.159855,1.66333 4.247559,1.709032 0.448642,0.233778 0.649199,0.813582 0.440978,1.27487 -0.206916,0.458402 -0.72433,0.701497 -1.188759,0.558512 -0.06564,-0.02022 -0.932531,-0.364219 -1.926398,-0.764462 -0.993868,-0.400244 -1.879172,-0.748602 -1.967346,-0.774133 -0.529265,-0.15325 -1.153403,-0.153354 -1.682045,-2.78e-4 -0.08764,0.02536 -0.665541,0.248393 -1.284215,0.495584 -0.61867,0.247195 -1.224327,0.482377 -1.345907,0.52263 -0.980617,0.324666 -2.02081,0.337419 -3.026055,0.0371 -0.142642,-0.04262 -0.7819681,-0.290972 -1.4207261,-0.551909 -1.15015,-0.469841 -1.364417,-0.543828 -1.729024,-0.597042 -0.27817,-0.04061 -0.782151,-0.01415 -1.073903,0.05637 -0.159131,0.03847 -0.855487,0.302355 -2.16641,0.820994 -1.062545,0.420375 -1.991537,0.775732 -2.064427,0.789688 -0.150093,0.02874 -0.227522,0.02886 -0.366056,4.01e-4 z m 4.047703,-8.844966 c -0.141283,-0.03504 -0.323008,-0.160279 -0.413965,-0.285289 -0.116541,-0.160171 -0.161394,-0.323649 -0.149119,-0.5434977 0.01889,-0.338295 -0.03712,-0.273782 1.643695,-1.89338 0.819401,-0.789556 1.986104,-1.914094 2.59268,-2.498973 0.6065721,-0.584876 1.1492951,-1.098176 1.2060441,-1.140664 0.377368,-0.282544 0.947916,-0.448329 1.407639,-0.4090248 0.413084,0.035331 0.896141,0.2209258 1.133389,0.4354838 0.05906,0.05341 1.269942,1.213894 2.690865,2.578867 2.492043,2.393913 2.586104,2.487256 2.657077,2.636719 0.06498,0.136811 0.07357,0.176963 0.07346,0.343018 -9e-5,0.1522647 -0.01096,0.2125207 -0.05698,0.3164747 -0.10418,0.235294 -0.263154,0.380361 -0.492625,0.449515 -0.108315,0.03263 -0.381674,0.03601 -2.476641,0.03039 l -2.35489,-0.0064 -0.149331,-0.07623 c -0.162517,-0.08295 -0.273596,-0.198972 -0.356276,-0.372129 -0.04306,-0.09017 -0.0513,-0.144383 -0.05152,-0.3388817 -2.47e-4,-0.220106 0.0035,-0.238786 0.07643,-0.378194 0.08456,-0.161678 0.204157,-0.276366 0.371766,-0.356506 0.109785,-0.05248 0.111242,-0.05254 1.434665,-0.05919 1.070505,-0.0054 1.32342,-0.01242 1.317714,-0.03665 -0.0134,-0.05696 -3.543666,-3.42795 -3.652466,-3.487688 -0.159121,-0.08736 -0.428535,-0.09502 -0.593232,-0.01684 -0.09693,0.046 -0.537053,0.456972 -2.2403991,2.09197 -1.165882,1.119095 -2.325144,2.231551 -2.576141,2.4721227 -0.318296,0.305076 -0.491151,0.45392 -0.57135,0.491982 -0.132077,0.06269 -0.33779,0.08581 -0.470495,0.0529 z"
     id="path5349"
     inkscape:connector-curvature="0" />
</svg>
