<svg xmlns="http://www.w3.org/2000/svg" width="24" height="24" viewBox="0 0 24 24">
    <path fill="#A5A5A5" fill-rule="evenodd" d="M22.93 20.37a1 1 0 0 1-1.3.56l-3.5-1.41a3 3 0 0 0-2.23 0l-2.05.82a5 5 0 0 1-3.7 0l-2-.82a3 3 0 0 0-2.22 0l-3.56 1.41a1 1 0 0 1-.74-1.86l3.51-1.4a4.47 4.47 0 0 1 .86-.26V13a1 1 0 0 1 2 0v4.41c.295.058.583.145.86.26l2 .81a3 3 0 0 0 2.22 0l2.05-.82a5.3 5.3 0 0 1 .84-.24V13a1 1 0 0 1 2 0v4.41c.301.058.596.145.88.26l3.49 1.4a1 1 0 0 1 .59 1.3zM4 11a1 1 0 0 0 .67-.26l6.79-6.12a1 1 0 0 1 1.08 0L17.4 9H14a1 1 0 0 0 0 2h6a1 1 0 0 0 .67-1.74l-6.84-6.17-.09-.09a3 3 0 0 0-3.48 0l-.09.07-6.84 6.19A1 1 0 0 0 4 11z"/>
</svg>
