<svg xmlns="http://www.w3.org/2000/svg" width="24" height="24"><path d="M22.517 9.716l-.456 2.177-2.25-.425.456-2.177zm-4.1-1.566l.91 2.545-2.58.998-.91-2.545zm-9.59 11.917l-2.49 2.644-2.773-1.783 2.49-2.644zM6.36 17.428l-2.435 1.39-1.54-2.116 2.435-1.39zm3.96-6.48l2.844 1.784-1.746 2.797-2.844-1.784zm-1.44 3.666L8.423 16.8l-2.25-.425.456-2.177zm13.266-1.865l-1.152 4.6-5.016-1.014 1.152-4.6zm-8.09 1.613l1.332 2.284-2.165 1.352-1.332-2.284zm-4.658 1.793l2.714 1.12-1.23 2.38-2.714-1.12zM1.85 13.46c-.338-.21-.48-.758-.32-1.223.126-.366.305-.483.878-.572.62-.097.868-.193 1.337-.516.844-.58 1.308-1.3 1.88-2.878.494-1.37.923-2.182 1.682-3.185 1.147-1.515 2.527-2.474 4.106-2.853 1.19-.285 3.16-.02 3.93.53.212.15.344.476.344.845 0 .202-.048.343-.184.548-.178.268-.2.278-.708.337-.622.072-1.05.275-1.448.687-.985 1.02-1.3 2.76-.777 4.287.656 1.9 2.408 2.57 3.697 1.39.826-1.307 2.214-.254 1.455.694-1.23 1.88-3.914 2.362-5.492.332-1.2-1.54-1.584-3.9-.97-5.92.18-.597.498-1.27.816-1.73l.202-.293-.333.054c-1.727.28-3.376 1.59-4.428 3.522-.196.36-.533 1.145-.752 1.75-.583 1.613-1.17 2.548-2.074 3.298-.86.715-2.37 1.19-2.843.896z" opacity="1" fill="#a5a5a5" stroke="#a5a5a5" stroke-width=".131" stroke-linejoin="round"/></svg>