<svg xmlns="http://www.w3.org/2000/svg" width="24" height="24"><path d="M19 20h-6v-5h-2v7h10v-7h-2zM13 4h6v2h-4v2h4v1.9h2V2H11v7.84h2zm9.93 9.37a1 1 0 0 1-1.3.56l-2.995-1.024c-1.226-.42-1.912-.125-2.765.12l-2.14.612c-1.394.4-2.78.65-4.146-1.158L7.26 9.134c-.69-.993-.38-1.472-1.567.356l-.904 1.522c-.906 1.39-2.42 2.918-2.42 2.918-.735.998-2.337-.238-1.393-1.236.648-.728 1.65-1.738 2.504-2.998S5 6.878 5.586 6.274c.905-.918 1.665-.627 2.65.89l2.772 4.048c.624.997 1.842.686 2.873.416l1.545-.404c.898-.235 2.29-.686 4.106-.12l2.807.954a1 1 0 0 1 .59 1.31z" fill="#a5a5a5"/></svg>