<?xml version="1.0" encoding="UTF-8" standalone="no"?>
<svg
   xmlns:dc="http://purl.org/dc/elements/1.1/"
   xmlns:cc="http://creativecommons.org/ns#"
   xmlns:rdf="http://www.w3.org/1999/02/22-rdf-syntax-ns#"
   xmlns:svg="http://www.w3.org/2000/svg"
   xmlns="http://www.w3.org/2000/svg"
   xmlns:sodipodi="http://sodipodi.sourceforge.net/DTD/sodipodi-0.dtd"
   xmlns:inkscape="http://www.inkscape.org/namespaces/inkscape"
   width="24"
   height="24"
   viewBox="0 0 24 24"
   version="1.1"
   id="svg3715"
   sodipodi:docname="icon-theme-offshore.svg"
   inkscape:version="0.92.4 (5da689c313, 2019-01-14)">
  <metadata
     id="metadata3721">
    <rdf:RDF>
      <cc:Work
         rdf:about="">
        <dc:format>image/svg+xml</dc:format>
        <dc:type
           rdf:resource="http://purl.org/dc/dcmitype/StillImage" />
      </cc:Work>
    </rdf:RDF>
  </metadata>
  <defs
     id="defs3719" />
  <sodipodi:namedview
     pagecolor="#ffffff"
     bordercolor="#666666"
     borderopacity="1"
     objecttolerance="10"
     gridtolerance="10"
     guidetolerance="10"
     inkscape:pageopacity="0"
     inkscape:pageshadow="2"
     inkscape:window-width="1920"
     inkscape:window-height="1001"
     id="namedview3717"
     showgrid="false"
     inkscape:zoom="36.333008"
     inkscape:cx="14.036596"
     inkscape:cy="11.090797"
     inkscape:window-x="-9"
     inkscape:window-y="-9"
     inkscape:window-maximized="1"
     inkscape:current-layer="layer1" />
  <g
     inkscape:groupmode="layer"
     id="layer1"
     inkscape:label="turbines"
     style="display:inline">
    <path
       id="path4620"
       style="fill:#a5a5a5;stroke-width:0.08795932;fill-opacity:1"
       d="M 11.334705,6.8805554 C 11.16416,6.6774542 10.532653,6.3523818 10.304068,6.3500297 9.8763299,6.345625 9.9249629,6.2054173 10.74765,5.0711612 c 0.453073,-0.6246613 1.147575,-1.5226975 1.54334,-1.9956349 0.772347,-0.9229579 1.880086,-1.9654549 2.088453,-1.9654549 0.225542,0 0.04499,0.760775 -0.423703,1.7852639 -0.426599,0.932486 -2.29455,4.1955709 -2.398801,4.1904203 -0.02864,-0.00139 -0.128657,-0.093755 -0.222234,-0.2052002 z M 9.1829708,8.5687202 C 8.574412,8.0411979 8.9908028,7.1702239 9.8515549,7.1702239 c 0.5524341,0 0.9447411,0.3400658 0.9447411,0.8189378 0,0.746135 -1.0047691,1.1070786 -1.6133252,0.5795585 z M 4.7971979,8.717051 C 2.6659452,8.5776669 0.80144556,8.2593598 0.71353716,8.019891 0.59033941,7.6842949 3.2316298,7.312261 6.5371667,7.199615 L 8.1387454,7.1450353 8.0073198,7.4647321 C 7.8427989,7.864934 7.8416148,8.1106308 8.0023279,8.5009996 L 8.1287594,8.8081013 6.9825876,8.7965513 C 6.3521908,8.7901998 5.368769,8.7544238 4.7972007,8.7170421 Z M 15.349675,11.252087 C 14.525137,9.8219065 14.163262,8.89405 14.43002,8.89405 c 0.176282,0 1.054173,0.9292225 1.795161,1.900131 l 0.768612,1.007103 -0.308789,0.109571 c -0.169834,0.06026 -0.398538,0.181647 -0.508232,0.269742 l -0.199444,0.160177 z m 3.007011,1.745343 0.0035,-0.499863 0.62769,-7.9e-5 c 1.459188,-1.99e-4 3.5764,0.290097 3.5764,0.4904 0,0.167379 -1.294039,0.350566 -3.215595,0.45521 l -0.995459,0.05421 0.0035,-0.499861 z m -1.701343,0.363562 c -0.283294,-0.24557 -0.293223,-0.446359 -0.03609,-0.729724 0.131865,-0.145318 0.286118,-0.21578 0.47237,-0.21578 0.612144,0 0.882622,0.651479 0.405536,0.976784 -0.326896,0.222897 -0.558527,0.214289 -0.84182,-0.03128 z m -2.803755,1.159211 c -0.7544,-0.602195 -2.250286,-2.380728 -3.522719,-4.188335 -0.3966851,-0.5635307 -0.4014851,-0.6996965 -0.0248,-0.7035738 0.229815,-0.00235 0.852286,-0.3242882 1.051463,-0.5437807 0.109558,-0.120738 0.220588,-0.200984 0.246725,-0.1783267 0.160533,0.1391552 2.067414,3.5350542 2.396627,4.2680702 0.415812,0.925824 0.596501,1.693994 0.398471,1.693994 -0.06037,0 -0.305953,-0.156623 -0.545767,-0.348048 z m 0.493438,2.351999 c 0,-0.28025 0.375859,-1.088859 1.052305,-2.263889 l 0.552709,-0.960093 0.344363,0.202573 c 0.1894,0.111417 0.427498,0.202573 0.529105,0.202573 0.172918,0 0.168167,0.0249 -0.07426,0.388998 -0.663287,0.996215 -2.1068,2.641077 -2.317784,2.641077 -0.04754,0 -0.08644,-0.09506 -0.08644,-0.211239 z m 2.078427,0.796184 v -2.06546 l 0.543225,-0.579918 c 0.298774,-0.318956 0.593867,-0.633403 0.655761,-0.698774 0.08806,-0.09301 0.113739,0.482253 0.118092,2.645376 l 0.03875,2.713454 -0.277968,-0.02819 -0.359998,-0.02038 -0.431166,0.0068 -0.286636,0.04192 z M 8.9123695,15.17651 c 0.00432,-4.02387 0.030427,-5.135872 0.1180946,-5.031588 0.061892,0.07363 0.4845276,0.588013 0.9391838,1.143078 l 0.8266481,1.00921 v 4.022378 4.402457 L 9.8515549,20.341968 8.9068152,19.987229 Z m 2.4549575,8.158559 C 10.571208,23.30068 10.496259,23.280541 9.0877619,22.722553 8.4056314,22.452321 7.7924343,22.199244 7.7251016,22.160159 7.5173816,22.039583 6.9951843,21.90891 6.7210862,21.908917 c -0.2212536,6e-6 -0.2918387,0.01774 -0.9082149,0.228235 -0.5914951,0.201993 -0.6939241,0.228453 -0.8910891,0.230191 -0.1859427,0.0016 -0.2505691,-0.01169 -0.3909073,-0.0806 -0.1847902,-0.09075 -0.342173,-0.246938 -0.4467022,-0.443321 -0.056258,-0.105695 -0.067905,-0.173428 -0.067905,-0.394903 0,-0.30351 0.053861,-0.444494 0.2477727,-0.648557 0.1486183,-0.156398 0.2522363,-0.204367 0.9493299,-0.439485 0.9503533,-0.320537 1.0006476,-0.330478 1.5945506,-0.315178 0.4941558,0.01273 0.515413,0.01599 0.9943693,0.152399 0.2839402,0.08087 0.5645281,0.181249 0.6683168,0.239089 0.3084986,0.171921 2.323851,0.955472 2.555184,0.993431 0.297204,0.04877 1.402224,0.05349 1.693021,0.0072 0.39156,-0.06228 0.808337,-0.199248 1.886138,-0.619827 1.800123,-0.702445 1.709667,-0.673447 2.138614,-0.685583 0.923153,-0.02612 1.977548,0.176493 2.692644,0.517413 0.428526,0.204299 0.613633,0.466437 0.616694,0.873324 0.0028,0.370303 -0.167825,0.658308 -0.493629,0.833284 -0.167413,0.08991 -0.211881,0.100487 -0.42462,0.100987 -0.204165,4.8e-4 -0.267115,-0.01276 -0.44708,-0.09406 -0.115201,-0.05204 -0.315696,-0.12925 -0.445544,-0.171579 -0.257762,-0.08403 -0.981807,-0.191942 -1.293774,-0.192829 -0.223866,-6.37e-4 -0.245793,0.0069 -1.774143,0.606738 -0.528298,0.207356 -1.137,0.429108 -1.35267,0.492783 -0.739721,0.218392 -1.402534,0.282394 -2.454115,0.23697 z" />
  </g>
  <g
     inkscape:groupmode="layer"
     id="layer2"
     inkscape:label="turbines (vector)"
     style="display:none" />
</svg>
