<?xml version="1.0" encoding="UTF-8" standalone="no"?>
<svg
   xmlns:dc="http://purl.org/dc/elements/1.1/"
   xmlns:cc="http://creativecommons.org/ns#"
   xmlns:rdf="http://www.w3.org/1999/02/22-rdf-syntax-ns#"
   xmlns:svg="http://www.w3.org/2000/svg"
   xmlns="http://www.w3.org/2000/svg"
   xmlns:sodipodi="http://sodipodi.sourceforge.net/DTD/sodipodi-0.dtd"
   xmlns:inkscape="http://www.inkscape.org/namespaces/inkscape"
   width="24"
   height="24"
   viewBox="0 0 24 24"
   version="1.1"
   id="svg6404"
   sodipodi:docname="icon-dataset-erosion_v4.svg"
   inkscape:version="0.92.4 (5da689c313, 2019-01-14)">
  <metadata
     id="metadata6410">
    <rdf:RDF>
      <cc:Work
         rdf:about="">
        <dc:format>image/svg+xml</dc:format>
        <dc:type
           rdf:resource="http://purl.org/dc/dcmitype/StillImage" />
        <dc:title></dc:title>
      </cc:Work>
    </rdf:RDF>
  </metadata>
  <defs
     id="defs6408" />
  <sodipodi:namedview
     pagecolor="#ffffff"
     bordercolor="#666666"
     borderopacity="1"
     objecttolerance="10"
     gridtolerance="10"
     guidetolerance="10"
     inkscape:pageopacity="0"
     inkscape:pageshadow="2"
     inkscape:window-width="1920"
     inkscape:window-height="1017"
     id="namedview6406"
     showgrid="false"
     inkscape:zoom="17.005247"
     inkscape:cx="-1.6120145"
     inkscape:cy="8.7822969"
     inkscape:window-x="-8"
     inkscape:window-y="-8"
     inkscape:window-maximized="1"
     inkscape:current-layer="svg6404" />
  <path
     id="path6992"
     style="fill:#a5a5a5;fill-opacity:1;stroke-width:0.06503032"
     d="m 10.329171,16.914494 c -0.09199,0 -0.212149,0.01452 -0.3300775,0.08008 -0.1210966,0.06732 -0.2034866,0.169044 -0.2558594,0.271484 -0.095373,0.18655 -0.1160294,0.373908 -0.1425781,0.619141 -0.052805,0.487716 -0.1645238,0.754633 -0.4101562,1.042969 -0.1389625,0.163117 -0.2409839,0.24796 -0.34375,0.292968 -0.1027662,0.04501 -0.2204029,0.05699 -0.4101563,0.04102 C 8.1557426,19.238196 7.9763971,19.143214 7.8018279,18.92426 7.6304209,18.709273 7.483646,18.352287 7.4112029,17.8559 7.3747491,17.60609 7.3540291,17.418976 7.241281,17.228947 7.1759504,17.118835 7.0780031,17.026915 6.9522185,16.973088 c -0.1153318,-0.04935 -0.2227703,-0.05593 -0.3007813,-0.05664 -0.2696103,-0.002 -0.4909325,0.174615 -0.5957031,0.390625 -0.090852,0.187312 -0.12231,0.391707 -0.1425781,0.634766 -0.025654,0.307861 -0.2091167,0.772084 -0.3496094,0.947265 -0.063666,0.07939 -0.2057009,0.200315 -0.3359375,0.277344 -0.062426,0.03692 -0.130347,0.06665 -0.1835937,0.08594 -0.026623,0.0096 -0.048857,0.01543 -0.064453,0.01953 -0.015596,0.0041 -0.034424,0.004 -0.00391,0.0039 -0.3026625,9.6e-4 -0.5988832,0.142628 -0.75,0.408203 -0.1473442,0.258946 -0.1332621,0.569114 -0.021484,0.841797 0.057623,0.140552 0.1691885,0.275847 0.3476563,0.341797 0.1421218,0.05252 0.2659372,0.05078 0.3925781,0.05078 0.6662584,0 1.2747053,-0.393827 1.7304688,-0.988281 0.1161847,0.154963 0.2338844,0.317077 0.3789094,0.439459 0.4849719,0.409255 0.9808769,0.574732 1.609375,0.537109 0.6902927,-0.04138 1.2302838,-0.368846 1.689453,-0.976562 0.27627,0.373618 0.650547,0.71326 1.066406,0.871094 0.286578,0.108762 0.609247,0.130208 0.921875,0.109375 0.311936,-0.02079 0.62126,-0.08196 0.884766,-0.236328 0.307785,-0.180311 0.578231,-0.452785 0.794922,-0.742188 0.45931,0.606029 0.998312,0.933234 1.6875,0.974609 0.356547,0.0214 0.644859,-0.004 0.912109,-0.105468 0.414275,-0.157233 0.791154,-0.500469 1.074219,-0.873047 0.449074,0.588043 1.050949,0.990234 1.705078,0.990234 0.200617,0 0.432346,-0.03285 0.615235,-0.201172 0.186866,-0.171977 0.234374,-0.412514 0.234374,-0.615234 0,-0.196503 -0.05418,-0.433061 -0.240234,-0.597656 -0.172237,-0.152371 -0.375867,-0.197677 -0.576172,-0.228516 -0.222123,-0.03419 -0.438635,-0.157592 -0.628906,-0.390625 -0.04748,-0.05815 -0.167496,-0.275888 -0.242188,-0.480469 -0.0747,-0.204607 -0.121084,-0.449922 -0.121093,-0.505859 -3.1e-5,-0.214793 -0.03238,-0.419409 -0.128907,-0.603516 -0.105354,-0.200945 -0.316812,-0.380459 -0.591796,-0.378906 -6.67e-4,-4e-6 -0.0013,-4e-6 -0.002,0 -0.07778,5.73e-4 -0.184962,0.0066 -0.300781,0.05664 -0.127576,0.05516 -0.223368,0.149629 -0.287109,0.257812 -0.111356,0.188999 -0.133472,0.375207 -0.169922,0.625 -0.11147,0.763811 -0.373813,1.159669 -0.722656,1.330078 -0.203082,0.0992 -0.383857,0.121994 -0.554688,0.08203 -0.170831,-0.03996 -0.338918,-0.146172 -0.503906,-0.339844 -0.242872,-0.285089 -0.353371,-0.554507 -0.40625,-1.042969 -0.02648,-0.244605 -0.04889,-0.432385 -0.142578,-0.617187 -0.05092,-0.100434 -0.13064,-0.202885 -0.25,-0.271485 -0.117549,-0.06756 -0.238534,-0.08203 -0.332031,-0.08203 -0.225254,0 -0.475053,0.106221 -0.609375,0.335937 -0.113793,0.194607 -0.139441,0.396243 -0.166016,0.644532 -0.05514,0.515549 -0.13258,0.704147 -0.40625,1.02539 -0.245931,0.288691 -0.38995,0.355469 -0.679688,0.355469 -0.170646,0 -0.271741,-0.02053 -0.371093,-0.07617 -0.09935,-0.05565 -0.207582,-0.156345 -0.351563,-0.341797 -0.265669,-0.342199 -0.329783,-0.519649 -0.382812,-1.048828 -0.02088,-0.20824 -0.05514,-0.400654 -0.167969,-0.578125 -0.129398,-0.203537 -0.356881,-0.316406 -0.583985,-0.316406 z"
     inkscape:connector-curvature="0"
     sodipodi:nodetypes="cccccccccccccccccsccccscccccccccccscsccccccccccccccsccscccscccccc" />
  <g
     style="fill:#a5a5a5;fill-opacity:1;stroke-width:1.51339674;stroke-miterlimit:4;stroke-dasharray:none"
     id="g4527"
     transform="matrix(0.37674089,0,0,0.3637905,13.088028,8.1545044)">
    <path
       style="fill:#a5a5a5;fill-opacity:1;stroke-width:1.51339674;stroke-miterlimit:4;stroke-dasharray:none"
       id="path4525"
       d="M 16.115214,22.073293 3.8479201,22.036647 C 2.7579665,22.033391 2.1,21.196887 1.9631339,20.330421 L 0.11059827,4.0894586 c 0,-0.3 -0.2686609,-0.6366466 0.34746436,-1.4229925 C 1.211054,1.9534135 1.7691174,2.0373495 2.0691166,2.0366466 L 17.709687,2 c 0.299999,-7.029e-4 1.005527,-0.00994 1.73225,0.5931729 C 20.08433,3.2695789 20,3.9726916 20,4.2726916 L 17.963134,20.220481 c -0.136866,1.013053 -0.831802,1.855848 -1.84792,1.852812 z m -8.931434,-3.783825 5.909604,-0.01453 c 1.040488,0.02111 1.49617,-0.593303 1.557322,-1.364671 L 15.851675,7.1359813 C 15.98911,6.0544141 15.510797,5.4053926 14.812034,5.4084106 L 5.8697266,5.4812313 C 4.6334381,5.4500756 4.3022415,6.2950836 4.2683415,7.0466179 l 1.140369,10.0761441 c 0.2022475,0.978175 0.9872941,1.191994 1.7750695,1.166706 z"
       inkscape:connector-curvature="0"
       sodipodi:nodetypes="sscccsscccsccccccccc" />
  </g>
  <g
     id="g5185"
     transform="matrix(1.7638796,0,0,1.563221,-62.092754,-6.3498692)"
     style="fill:#a5a5a5;fill-opacity:1">
    <path
       style="fill:#a5a5a5;fill-opacity:1;stroke-width:0.4596999;stroke-miterlimit:4;stroke-dasharray:none"
       id="path4598"
       d="M 43.738138,5.8813134 40.33747,4.5640106 c -0.260115,-0.099992 -0.514216,0.037314 -0.616095,0.2556834 -0.103197,0.2204493 -0.01129,0.5448082 0.251549,0.6455566 l 1.108539,0.4588213 -1.305454,2.9806845 -0.668107,-0.258802 v 0 C 38.323774,8.3408575 37.439675,8.629971 37.135691,9.290897 l -0.903093,1.927633 c -0.147098,0.317538 -0.137639,0.680348 0.02628,1.00802 l 0.703999,1.416409 c 0.338095,0.680227 1.235461,1.027836 2.004323,0.776406 l 1.60097,-0.523541 c 0.371104,-0.120422 0.66223,-0.366796 0.808855,-0.684518 l 0.887129,-1.927187 C 42.570862,10.62425 42.182096,9.8420726 41.39691,9.5392684 l -0.668107,-0.2588018 1.328096,-2.9785442 1.279959,0.4736081 c 0.262006,0.1025608 0.500585,-0.035917 0.60163,-0.2572005 0.112132,-0.2248384 0.07268,-0.5381332 -0.20035,-0.6370166 z m -2.677424,5.6799986 -0.404062,0.881773 c -0.162508,0.348392 -0.542627,0.531222 -0.666279,0.570942 l -1.280384,0.422335 c -0.2561,0.08447 -0.706276,-0.03206 -0.818973,-0.258804 L 37.45099,12.206427 c -0.186976,-0.311301 -0.24728,-0.593954 -0.06693,-0.962983 l 0.611501,-1.2461199 c 0.101878,-0.2183701 0.488485,-0.4556519 0.7486,-0.3556592 l 0.536102,0.2385607 -0.116204,0.3223834 c -0.100333,0.218969 0.02821,0.477587 0.287722,0.578881 0.13235,0.0509 0.280047,0.05279 0.407214,0.0052 0.121513,-0.04026 0.216921,-0.121176 0.265655,-0.225289 l 0.122887,-0.299554 0.611533,0.238561 c 0.273031,0.09888 0.44573,0.431188 0.295883,0.757233 z"
       inkscape:connector-curvature="0"
       sodipodi:nodetypes="ccccccccccccsccccccccccccscccccccccccccc" />
  </g>
  <g
     id="g1392"
     transform="translate(0.02225155,1.282915)">
    <path
       style="color:#000000;font-style:normal;font-variant:normal;font-weight:normal;font-stretch:normal;font-size:medium;line-height:normal;font-family:sans-serif;font-variant-ligatures:normal;font-variant-position:normal;font-variant-caps:normal;font-variant-numeric:normal;font-variant-alternates:normal;font-feature-settings:normal;text-indent:0;text-align:start;text-decoration:none;text-decoration-line:none;text-decoration-style:solid;text-decoration-color:#000000;letter-spacing:normal;word-spacing:normal;text-transform:none;writing-mode:lr-tb;direction:ltr;text-orientation:mixed;dominant-baseline:auto;baseline-shift:baseline;text-anchor:start;white-space:normal;shape-padding:0;clip-rule:nonzero;display:inline;overflow:visible;visibility:visible;opacity:0.98999999;isolation:auto;mix-blend-mode:normal;color-interpolation:sRGB;color-interpolation-filters:linearRGB;solid-color:#000000;solid-opacity:1;vector-effect:none;fill:#a5a5a5;fill-opacity:1;fill-rule:nonzero;stroke:none;stroke-width:0.28061658;stroke-linecap:round;stroke-linejoin:round;stroke-miterlimit:4;stroke-dasharray:none;stroke-dashoffset:0;stroke-opacity:1;color-rendering:auto;image-rendering:auto;shape-rendering:auto;text-rendering:auto;enable-background:accumulate"
       d="m 16.905452,9.5556959 c -0.678038,0 -1.230721,0.5362681 -1.230721,1.1941671 0,0.657899 0.552683,1.194166 1.230721,1.194166 0.678037,0 1.23072,-0.536267 1.23072,-1.194166 0,-0.657899 -0.552683,-1.1941671 -1.23072,-1.1941671 z"
       id="path1389"
       inkscape:connector-curvature="0"
       sodipodi:nodetypes="sssss" />
  </g>
  <path
     style="color:#000000;font-style:normal;font-variant:normal;font-weight:normal;font-stretch:normal;font-size:medium;line-height:normal;font-family:sans-serif;font-variant-ligatures:normal;font-variant-position:normal;font-variant-caps:normal;font-variant-numeric:normal;font-variant-alternates:normal;font-feature-settings:normal;text-indent:0;text-align:start;text-decoration:none;text-decoration-line:none;text-decoration-style:solid;text-decoration-color:#000000;letter-spacing:normal;word-spacing:normal;text-transform:none;writing-mode:lr-tb;direction:ltr;text-orientation:mixed;dominant-baseline:auto;baseline-shift:baseline;text-anchor:start;white-space:normal;shape-padding:0;clip-rule:nonzero;display:inline;overflow:visible;visibility:visible;opacity:0.98999999;isolation:auto;mix-blend-mode:normal;color-interpolation:sRGB;color-interpolation-filters:linearRGB;solid-color:#000000;solid-opacity:1;vector-effect:none;fill:#a5a5a5;fill-opacity:1;fill-rule:nonzero;stroke:none;stroke-width:0.43073592;stroke-linecap:round;stroke-linejoin:round;stroke-miterlimit:4;stroke-dasharray:none;stroke-dashoffset:0;stroke-opacity:1;color-rendering:auto;image-rendering:auto;shape-rendering:auto;text-rendering:auto;enable-background:accumulate"
     d="m 17.386284,11.681434 c 0.04451,-0.109816 0.244434,-0.213604 0.355983,-0.167375 l 4.2334,1.357305 c 0.11078,0.04607 0.191145,0.213004 0.146047,0.321769 l -0.252758,0.731196 c -0.04494,0.108009 -0.22074,0.145477 -0.331269,0.100817 l -4.487762,-1.358071 c -0.111189,-0.04508 0.01119,-0.190827 0.05528,-0.299995 z"
     id="rect1398"
     inkscape:connector-curvature="0"
     sodipodi:nodetypes="ccccccccc" />
</svg>
