<svg xmlns="http://www.w3.org/2000/svg" width="24" height="24" viewBox="0 0 24 24">
    <path fill="#A5A5A5" fill-rule="evenodd" d="M9.31 21.92A3 3 0 0 1 8 21.6l-1.62-.81a3 3 0 0 1-1.34-4l.46-.92a1 1 0 0 0-.19-1.15l-1.39-1.4A3 3 0 0 1 3 11.17V9.32a3 3 0 0 1 1.82-2.76l2-.86L7.94 4a3 3 0 0 1 3-1.29l6.46 1.17A2.94 2.94 0 0 1 19.27 5l2.05 2.72a3 3 0 0 1 .57 2.18L21 17.46l-2.3 2.3a2.92 2.92 0 0 1-1.6.83l-7.28 1.28a2.94 2.94 0 0 1-.51.05zM10.44 4.7a1 1 0 0 0-.83.44L8.17 7.3 5.61 8.4a1 1 0 0 0-.61.92v1.85a1 1 0 0 0 .29.71l1.4 1.39a3 3 0 0 1 .56 3.47l-.46.92A1 1 0 0 0 7.24 19l1.62.81a1 1 0 0 0 .62.09l7.23-1.28a1 1 0 0 0 .53-.27l1.81-1.81.86-6.86a1 1 0 0 0-.2-.73l-2-2.72a1 1 0 0 0-.62-.38l-6.48-1.14-.17-.01z"/>
</svg>
