<svg xmlns="http://www.w3.org/2000/svg" width="24" height="24"><path d="M2.142 14.454c-.338-.21-.48-.758-.32-1.223.126-.366.305-.483.878-.572.62-.097.868-.193 1.337-.516.844-.58 1.308-1.3 1.88-2.878.494-1.37.923-2.182 1.682-3.185 1.147-1.515 2.527-2.474 4.106-2.853 1.19-.285 3.16-.02 3.93.53.212.15.344.476.344.845 0 .202-.048.343-.184.548-.178.268-.2.278-.708.337-.622.072-1.05.275-1.448.687-.985 1.02-1.3 2.76-.777 4.287.656 1.9 2.408 2.57 3.697 1.39.628-.574.986-1.42 1.106-2.618.066-.66.09-.748.247-.943.136-.168.23-.214.425-.214.433 0 .69.372.69 1.007a4.02 4.02 0 0 0 .754 2.334c.448.62.907.918 1.554 1.01.554.08.76.244.857.687.082.377-.017.785-.247 1.02-.132.135-.227.16-.598.148-1.037-.03-2.124-.795-2.837-2l-.152-.257-.345.518c-1.473 2.214-3.914 2.362-5.492.332-1.2-1.54-1.584-3.9-.97-5.92.18-.597.498-1.27.816-1.73l.202-.293-.333.054c-1.727.28-3.376 1.59-4.428 3.522-.196.36-.533 1.145-.752 1.75-.583 1.613-1.17 2.548-2.074 3.298-.86.715-2.37 1.19-2.843.896zm8.128 1.05c-.092 0-.212.015-.33.08a.64.64 0 0 0-.256.271c-.095.187-.116.374-.143.62-.053.488-.165.755-.4 1.043-.14.163-.24.248-.344.293s-.22.057-.4.04c-.28-.024-.46-.12-.635-.338s-.318-.572-.39-1.068c-.036-.25-.057-.437-.17-.627a.62.62 0 0 0-.289-.256.76.76 0 0 0-.301-.057c-.27-.002-.49.175-.596.39-.09.187-.122.392-.143.635-.026.308-.21.772-.35.947a1.43 1.43 0 0 1-.336.277c-.062.037-.13.067-.184.086-.027.01-.05.015-.064.02s-.034.004-.004.004c-.303.001-.6.143-.75.408-.147.26-.133.57-.02.842a.6.6 0 0 0 .348.342c.142.053.266.05.393.05.666 0 1.275-.394 1.73-.988.116.155.234.317.38.44a2.13 2.13 0 0 0 1.609.537c.7-.04 1.23-.37 1.69-.977.276.374.65.713 1.066.87.287.11.61.13.922.11s.62-.082.885-.236c.308-.18.578-.453.795-.742.46.606.998.933 1.688.975.357.02.645-.004.912-.105.414-.157.79-.5 1.074-.873.45.588 1.05 1 1.705 1 .2 0 .432-.033.615-.2s.234-.413.234-.615c0-.197-.054-.433-.24-.598-.172-.152-.376-.198-.576-.23-.222-.034-.44-.158-.63-.39-.047-.058-.167-.276-.242-.48a2.25 2.25 0 0 1-.121-.506c0-.215-.032-.42-.13-.604-.105-.2-.317-.38-.592-.38a.164.164 0 0 0-.002 0 .75.75 0 0 0-.301.057.62.62 0 0 0-.287.258c-.11.19-.133.375-.17.625-.11.764-.374 1.16-.723 1.33-.203.1-.384.122-.555.082s-.34-.146-.504-.34c-.243-.285-.353-.555-.406-1.043-.026-.245-.05-.432-.143-.617-.05-.1-.13-.203-.25-.27a.66.66 0 0 0-.332-.082c-.225 0-.475.106-.61.336-.114.195-.14.396-.166.645-.055.516-.133.704-.406 1.025-.246.29-.4.355-.68.355-.17 0-.272-.02-.37-.076s-.208-.156-.352-.342c-.266-.342-.33-.52-.383-1.05-.02-.208-.055-.4-.168-.578-.13-.204-.357-.316-.584-.316z" fill="#a5a5a5"/></svg>