<?xml version="1.0" encoding="utf-8"?>
<!-- Generator: Adobe Illustrator 24.1.0, SVG Export Plug-In . SVG Version: 6.00 Build 0)  -->
<svg version="1.1" id="Layer_1" xmlns="http://www.w3.org/2000/svg" xmlns:xlink="http://www.w3.org/1999/xlink" x="0px" y="0px"
	 viewBox="0 0 32 32" style="enable-background:new 0 0 32 32;" xml:space="preserve">
<style type="text/css">
	.st0{fill:#A5A5A5;}
</style>
<g>
	<path class="st0" d="M16,0C7.2,0,0,7.2,0,16s7.2,16,16,16s16-7.2,16-16S24.8,0,16,0z M16,29.4c-7.4,0-13.4-6-13.4-13.4
		S8.6,2.6,16,2.6s13.4,6,13.4,13.4S23.4,29.4,16,29.4z"/>
</g>
<g>
	<path class="st0" d="M6.4,8.8h2.4l4.3,7.6V8.8h2.6v12.7h-2.4L9.1,14v7.6H6.4V8.8z"/>
	<path class="st0" d="M17.8,21.1v-2.5h0.1c0.7,0.2,2.1,0.5,3.1,0.5h0.6c0.9,0,1.7-0.3,1.7-1.4c0-0.8-0.6-1.1-1.3-1.3l-1.8-0.5
		c-1.3-0.4-2.4-1.4-2.4-3.6c0-2.6,1.9-3.7,4.2-3.7h0.6c0.7,0,2.2,0.2,2.8,0.5v2.4h-0.1c-0.6-0.2-2-0.4-2.7-0.4h-0.5
		c-0.8,0-1.6,0.2-1.6,1.1c0,0.7,0.5,1,1.1,1.2l1.8,0.5c1.7,0.5,2.6,1.6,2.6,3.7c0,2.9-1.9,3.9-4.4,3.9H21
		C20.1,21.7,18.6,21.4,17.8,21.1z"/>
</g>
</svg>
