<svg xmlns="http://www.w3.org/2000/svg" width="24" height="24" viewBox="0 0 24 24">
  <path fill="#a5a5a5" d="M12.25 7.5c-.7-.05-1.23.03-1.8.26-.6.24-1.1.63-1.45 1.12-.2.29-.39.66-.44.96l-.02.37-.02.72-.02 2.22v2.49l-.02.82-.11.11a3.98 3.98 0 00-1.12 2.19c-.05.3-.04.84.01 1.13.17.9.6 1.67 1.33 2.3a5.1 5.1 0 002.93 1.2 6.68 6.68 0 001.06-.02c.27-.04.68-.13.93-.2 1.74-.54 2.97-1.87 3.14-3.45a3.64 3.64 0 00-.47-2.25 4.74 4.74 0 00-.72-.91l-.08-.09v-.92l-.02-3.45-.02-1.37-.01-.66c-.04-.39-.1-.58-.3-.94a3.38 3.38 0 00-1.93-1.5 3.26 3.26 0 00-.84-.14zm-.03 1.55c.52.05 1 .36 1.25.79a.89.89 0 01.15.46v.3l.02.73v2.42l.02 3.27c0 .06.03.12.07.16l.2.19c.63.59.87.97.97 1.5a2.84 2.84 0 01-.02.98c-.05.24-.28.7-.48.93-.11.14-.51.48-.7.6a3.39 3.39 0 01-1.5.47c-.4.03-.8-.02-1.24-.14a2.87 2.87 0 01-1.78-1.41c-.21-.4-.21-.42-.21-1 0-.52-.01-.49.14-.86.16-.4.34-.63.82-1.09l.2-.19c.05-.04.08-.1.08-.16v-1.56l.02-3.42.02-1.63c0-.24 0-.24.02-.3.07-.23.2-.42.42-.62a1.78 1.78 0 01.77-.4c.14-.03.56-.05.75-.03zm-.92 3.4c-.06 0-.12.03-.16.07s-.06.1-.06.16v4.9l-.14.08c-.35.2-.68.46-.86.72-.33.48-.37 1.1-.11 1.65.28.6.9 1 1.61 1.12a2.72 2.72 0 00.9-.03 2.06 2.06 0 00.94-.46 1.75 1.75 0 00.48-2.14c-.16-.33-.5-.6-.99-.88l-.1-.06v-4.9c0-.06-.03-.12-.07-.16s-.1-.06-.15-.06h-.65zM22 10a4 4 0 01-4 4h-1v-2h1a2 2 0 001.45-3.4 2 2 0 00-2.17-.46l-1.15.45-.2-1.22A4 4 0 008.74 5.7l-.4.55-.66-.16A3 3 0 007 6a3 3 0 00-2.6 4.5A3 3 0 007 12v2A5 5 0 017 4a4.34 4.34 0 01.51 0 6 6 0 0110.14 2A4 4 0 0122 10z"/>
</svg>
