<svg xmlns="http://www.w3.org/2000/svg" width="24" height="24" viewBox="0 0 24 24">
  <path fill="#a5a5a5" d="M11.33 6.88c-.17-.2-.8-.53-1.03-.53-.42 0-.38-.14.45-1.28a44.6 44.6 0 011.54-2c.77-.92 1.88-1.96 2.09-1.96.22 0 .04.76-.42 1.79-.43.93-2.3 4.2-2.4 4.19-.03 0-.13-.1-.23-.2zM9.18 8.57c-.6-.53-.19-1.4.67-1.4.55 0 .95.34.95.82 0 .75-1 1.1-1.62.58zm-4.38.15c-2.13-.14-4-.46-4.09-.7-.12-.34 2.52-.7 5.83-.82l1.6-.05-.13.31c-.17.4-.17.65 0 1.04l.12.3H6.98c-.63-.01-1.61-.05-2.18-.08zm10.55 2.53c-.82-1.43-1.19-2.36-.92-2.36.18 0 1.05.93 1.8 1.9l.76 1.01-.3.11c-.17.06-.4.18-.51.27l-.2.16zm3 1.75l.01-.5h.63c1.46 0 3.57.29 3.57.49 0 .17-1.29.35-3.21.45l-1 .06V13zm-1.7.36c-.28-.24-.29-.45-.03-.73a.61.61 0 01.47-.21c.61 0 .88.65.4.97-.32.23-.55.22-.83-.03zm-2.8 1.16a25.6 25.6 0 01-3.52-4.19c-.4-.56-.4-.7-.03-.7.23 0 .86-.33 1.06-.55.1-.12.22-.2.24-.17.16.14 2.07 3.53 2.4 4.26.41.93.6 1.7.4 1.7-.06 0-.3-.16-.55-.35zm.5 2.35c0-.28.37-1.09 1.05-2.26l.55-.96.34.2c.2.11.43.2.53.2.18 0 .17.03-.07.4-.66.99-2.1 2.63-2.32 2.63-.05 0-.08-.1-.08-.2zm2.07.8V15.6l.55-.58c.3-.32.6-.63.65-.7.09-.09.12.49.12 2.65l.04 2.71-.28-.03-.36-.02-.43.01-.29.04zm-7.5-2.5c0-4.02.02-5.13.11-5.03l.94 1.15.83 1v8.43l-.95-.38-.94-.35zm2.45 8.17c-.8-.04-.87-.06-2.28-.62-.68-.27-1.3-.52-1.36-.56a2.7 2.7 0 00-1-.25c-.23 0-.3.02-.92.23-.59.2-.7.23-.89.23a.7.7 0 01-.39-.08c-.18-.1-.34-.25-.45-.45-.05-.1-.06-.17-.06-.4 0-.3.05-.44.24-.64.15-.16.26-.2.95-.44.95-.32 1-.33 1.6-.31.5 0 .51.01 1 .15.28.08.56.18.66.24.3.17 2.32.95 2.56.99.3.05 1.4.05 1.69 0 .39-.05.8-.2 1.88-.61 1.8-.7 1.71-.68 2.14-.69.93-.02 1.98.18 2.7.52.42.2.61.47.61.87 0 .37-.16.66-.5.84a.67.67 0 01-.42.1.83.83 0 01-.44-.1 5.3 5.3 0 00-.45-.17c-.26-.08-.98-.2-1.3-.2-.22 0-.24.02-1.77.62-.52.2-1.13.42-1.35.49-.74.22-1.4.28-2.45.24z"/>
</svg>
