<svg xmlns="http://www.w3.org/2000/svg" width="24" height="24" viewBox="0 0 24 24">
  <path fill="#A5A5A5" fill-rule="evenodd" d="M19 13H2a1 1 0 010-2h16.89A2.08 2.08 0 0021 9.34a2 2 0 00-3.87-1 .86.86 0 01-.8.63h-.13a1 1 0 01-1-1.28 4 4 0 014.73-2.61 4 4 0 012.95 3A4 4 0 0119 13zM4 9h5a4 4 0 003.89-5A4 4 0 0010 1.13a4 4 0 00-4.8 2.61A1 1 0 006.15 5a1 1 0 00.95-.63 2 2 0 013.87 1A2.08 2.08 0 018.89 7H4a1 1 0 100 2zm11 6H5a1 1 0 000 2h9.89A2.08 2.08 0 0117 18.66a2 2 0 01-3.87 1 1 1 0 00-.95-.63 1 1 0 00-1 1.26 4 4 0 004.74 2.63 4 4 0 003-2.95A4 4 0 0015 15z"/>
</svg>
