<svg xmlns="http://www.w3.org/2000/svg" width="24" height="24" viewBox="0 0 24 24">
    <path fill="#A5A5A5" fill-rule="evenodd" d="M10 6a1 1 0 0 1 1-1h6V3l4.1 3L17 9V7h-6a1 1 0 0 1-1-1zm-6.76 8l1.49-.37a7 7 0 0 1 4.3.29 8 8 0 0 0 5.94 0 7 7 0 0 1 4.3-.29l1.49.37a1.028 1.028 0 0 0 .48-2l-1.49-.37a8.91 8.91 0 0 0-5.52.37 5.93 5.93 0 0 1-4.46 0 8.91 8.91 0 0 0-5.52-.37L2.76 12a1.028 1.028 0 0 0 .48 2zm18 3.06l-1.49-.37a9 9 0 0 0-5.52.37 5.93 5.93 0 0 1-4.46 0 9 9 0 0 0-5.52-.37L2.76 17a1.028 1.028 0 0 0 .48 2l1.49-.37a7 7 0 0 1 4.3.29 8 8 0 0 0 5.94 0 7 7 0 0 1 4.3-.29l1.49.37a1.028 1.028 0 0 0 .48-2v.06z"/>
</svg>
