<?xml version="1.0" encoding="UTF-8" standalone="no"?>
<svg
   xmlns:dc="http://purl.org/dc/elements/1.1/"
   xmlns:cc="http://creativecommons.org/ns#"
   xmlns:rdf="http://www.w3.org/1999/02/22-rdf-syntax-ns#"
   xmlns:svg="http://www.w3.org/2000/svg"
   xmlns="http://www.w3.org/2000/svg"
   xmlns:sodipodi="http://sodipodi.sourceforge.net/DTD/sodipodi-0.dtd"
   xmlns:inkscape="http://www.inkscape.org/namespaces/inkscape"
   width="24"
   height="24"
   viewBox="0 0 24 24"
   version="1.1"
   id="svg38"
   sodipodi:docname="icon-theme-coastal-management.svg"
   inkscape:version="0.92.4 (5da689c313, 2019-01-14)">
  <metadata
     id="metadata44">
    <rdf:RDF>
      <cc:Work
         rdf:about="">
        <dc:format>image/svg+xml</dc:format>
        <dc:type
           rdf:resource="http://purl.org/dc/dcmitype/StillImage" />
      </cc:Work>
    </rdf:RDF>
  </metadata>
  <defs
     id="defs42" />
  <sodipodi:namedview
     pagecolor="#ffffff"
     bordercolor="#666666"
     borderopacity="1"
     objecttolerance="10"
     gridtolerance="10"
     guidetolerance="10"
     inkscape:pageopacity="0"
     inkscape:pageshadow="2"
     inkscape:window-width="1920"
     inkscape:window-height="1001"
     id="namedview40"
     showgrid="false"
     inkscape:zoom="16.821149"
     inkscape:cx="40.065496"
     inkscape:cy="6.3973174"
     inkscape:window-x="-9"
     inkscape:window-y="-9"
     inkscape:window-maximized="1"
     inkscape:current-layer="svg38" />
  <path
     style="fill:#a5a5a5;fill-opacity:1;stroke-width:0.0255648"
     d="M 6.9397048,23.600426 C 5.7703203,23.575289 5.1426611,23.513233 4.9326487,23.40203 4.4566906,23.150015 4.3768007,22.389546 4.7845618,21.992385 4.9944314,21.787969 5.1508082,21.762924 5.762175,21.83583 c 0.5500415,0.06559 2.2888474,0.08891 3.2652859,0.0438 l 0.7982583,-0.03687 0.6386058,-0.145639 c 0.717598,-0.163649 1.841018,-0.453736 1.915822,-0.494698 0.02701,-0.01481 0.258112,-0.166158 0.513543,-0.336362 l 0.464423,-0.309465 0.309278,-0.380318 c 0.25259,-0.310607 0.377095,-0.496597 0.679287,-1.014727 0.350982,-0.60178 0.389884,-0.682626 0.756418,-1.571989 l 0.386409,-0.937581 0.55435,-0.782107 0.55435,-0.782109 0.494524,-0.302996 0.494526,-0.302992 0.503519,-0.138242 c 0.502142,-0.137866 0.504839,-0.138287 0.98868,-0.152996 0.562646,-0.01712 0.565785,-0.01844 0.502527,-0.214626 -0.64173,-1.990134 -1.301975,-4.0837237 -1.319582,-4.1842963 -0.0427,-0.2439436 0.03189,-0.5064803 0.200084,-0.7041476 0.219309,-0.2577533 0.546991,-0.3450816 0.842107,-0.2244327 0.152226,0.062229 0.324927,0.2135437 0.404994,0.3548252 0.0391,0.068994 1.344788,4.1051674 1.524695,4.7131674 0.03033,0.102443 0.07254,0.201227 0.09386,0.219522 0.02857,0.02455 0.20026,0.03357 0.654238,0.03442 0.815354,0.0014 1.071868,0.02527 1.233885,0.114226 0.248099,0.136195 0.387149,0.404272 0.383121,0.738614 -0.0039,0.318755 -0.16746,0.588649 -0.436592,0.720164 -0.120459,0.05887 -0.147491,0.06041 -1.412306,0.0808 -0.709222,0.01142 -1.665289,0.0322 -2.124596,0.04616 -0.832915,0.02527 -0.835909,0.02559 -1.142479,0.113568 -0.238687,0.06849 -0.365675,0.123339 -0.568242,0.245433 l -0.260863,0.157231 -0.400817,0.56715 -0.400817,0.567156 -0.369591,0.898562 c -0.358591,0.871814 -0.382359,0.920513 -0.798468,1.636084 -0.398345,0.685013 -0.45923,0.774997 -0.855195,1.263914 l -0.426319,0.526393 -0.704455,0.474799 -0.704446,0.474804 -0.785979,0.208257 c -0.432289,0.114538 -1.10651,0.280308 -1.498272,0.368378 l -0.7122927,0.160121 -0.8965071,0.04194 c -0.4930785,0.0231 -0.9628229,0.03986 -1.0438768,0.03724 -0.081058,-0.0027 -0.5839574,-0.01409 -1.1175636,-0.02559 z M 6.5098735,19.585137 C 6.0698502,19.558277 5.8877359,19.518736 5.4168725,19.347885 4.9804293,19.189527 3.9250322,18.770108 3.5747349,18.615812 3.042309,18.381296 2.6119484,18.325249 2.2361158,18.441482 2.1820775,18.458198 1.9997087,18.518078 1.8308451,18.57456 1.3212836,18.745004 1.2217663,18.767091 1.0203054,18.754444 0.81050935,18.74126 0.72063106,18.699298 0.5610326,18.539921 0.4084275,18.387533 0.35710671,18.267432 0.3572738,18.063089 0.35746391,17.82701 0.39466021,17.708707 0.51251216,17.569355 0.6447044,17.413044 0.79106561,17.342489 1.4010135,17.141072 c 0.753712,-0.248899 0.7588505,-0.249809 1.3263391,-0.235849 0.4729922,0.01164 0.5035505,0.01571 0.8228208,0.110375 0.1823715,0.05406 0.4255337,0.140554 0.5403598,0.192205 0.3612084,0.16248 1.0966557,0.457343 1.6702045,0.669631 l 0.552641,0.204548 0.6877313,0.0091 c 0.4541675,0.006 0.7502926,-0.0018 0.8719445,-0.02273 0.2952748,-0.05097 0.6850906,-0.182724 1.7949091,-0.606682 1.2467164,-0.476248 1.1789194,-0.454071 1.4810694,-0.484465 0.636259,-0.06401 1.674477,0.104337 2.311835,0.374869 0.449496,0.190791 0.612917,0.392096 0.612429,0.754404 -1.92e-4,0.158287 -0.01186,0.211466 -0.073,0.332639 -0.127454,0.252695 -0.374883,0.401246 -0.668324,0.401246 -0.122297,0 -0.228544,-0.02669 -0.480721,-0.120694 -0.487896,-0.181899 -1.267986,-0.311132 -1.543098,-0.255634 -0.07234,0.01459 -0.358114,0.112695 -0.635047,0.217997 -1.7818949,0.677576 -2.171158,0.80293 -2.7159997,0.874627 -0.2992746,0.03937 -1.0326402,0.05383 -1.4472298,0.02849 z m 6.8767935,-2.874913 c -0.217081,-0.03153 -0.465348,-0.215953 -0.560311,-0.416261 -0.101845,-0.214831 -0.870873,-2.579821 -1.196004,-3.678066 -0.371008,-1.253215 -0.373506,-1.263299 -0.362463,-1.463481 0.01785,-0.323497 0.16913,-0.572685 0.432869,-0.712992 0.186703,-0.09933 0.468331,-0.104673 0.654828,-0.01241 0.142247,0.07036 0.31629,0.243418 0.379643,0.377501 0.02422,0.05122 0.206996,0.643934 0.406207,1.317134 0.199207,0.673201 0.539272,1.744865 0.755697,2.381479 0.386642,1.137319 0.393496,1.161186 0.393405,1.370349 -6.5e-5,0.15791 -0.01335,0.245293 -0.0514,0.338455 -0.143341,0.350848 -0.486488,0.551432 -0.852468,0.498309 z M 8.9364485,11.349902 c -0.1423009,-0.07793 -0.250312,-0.197734 -0.3304572,-0.366534 -0.070451,-0.148375 -0.090588,-0.47349 -0.039369,-0.635567 0.020053,-0.06346 0.8459411,-1.6839726 1.8352997,-3.601129 1.228206,-2.3799926 1.840553,-3.5410595 1.930356,-3.6601278 0.430928,-0.5713725 1.087511,-0.8860287 1.754916,-0.8410125 0.433028,0.029216 0.07277,-0.1526694 4.712868,2.3792596 1.247932,0.6809449 2.304066,1.2714732 2.34697,1.3122822 0.135537,0.1289194 0.21773,0.3277057 0.229806,0.5557947 0.0058,0.1103208 -0.0019,0.2504297 -0.01702,0.3113486 -0.03989,0.1599129 -0.17392,0.3567199 -0.301295,0.4424303 -0.136757,0.092021 -4.421624,1.6118915 -4.606626,1.6339963 -0.271764,0.032476 -0.525783,-0.1261162 -0.663445,-0.4142056 -0.07155,-0.149734 -0.08019,-0.1914571 -0.08019,-0.3874028 0,-0.1918514 0.0095,-0.2402517 0.07537,-0.3829872 C 15.92484,7.389917 15.90935,7.39798 17.303962,6.9046365 17.98662,6.6631438 18.561736,6.4556655 18.582001,6.4435666 18.697402,6.3746636 18.642901,6.3415809 16.375087,5.1040784 L 14.13133,3.8797081 13.943468,3.8919441 c -0.214865,0.013948 -0.382878,0.092062 -0.512163,0.2380685 -0.04327,0.048873 -0.875803,1.6275038 -1.850073,3.5080739 -0.974268,1.880571 -1.8020607,3.4611295 -1.839537,3.5123515 -0.037473,0.05122 -0.1214586,0.129051 -0.1866282,0.172959 -0.099476,0.06701 -0.1483601,0.08117 -0.3046317,0.08819 -0.1613492,0.0073 -0.2031696,-9.11e-4 -0.3139961,-0.06166 z M 6.0145058,1.8706265 c 3.253397,-0.00364 8.5698052,-0.00364 11.8142382,0 3.244433,0.00364 0.582561,0.00674 -5.915269,0.00674 -6.4978312,0 -9.1523669,-0.00319 -5.8989692,-0.00674 z"
     id="path4682"
     inkscape:connector-curvature="0" />
</svg>
