<svg xmlns="http://www.w3.org/2000/svg" width="24" height="24" viewBox="0 0 24 24">
  <path fill="#a5a5a5" d="M2.14 14.45c-.34-.2-.48-.75-.32-1.22.13-.37.3-.48.88-.57.62-.1.87-.2 1.34-.52.84-.58 1.3-1.3 1.88-2.88.5-1.36.92-2.18 1.68-3.18a7.27 7.27 0 014.1-2.85c1.2-.29 3.17-.02 3.94.53.2.15.34.47.34.84a.9.9 0 01-.19.55c-.17.27-.2.28-.7.34a2.2 2.2 0 00-1.45.68 4.3 4.3 0 00-.78 4.3c.66 1.9 2.41 2.56 3.7 1.38.63-.57.99-1.42 1.1-2.62.07-.66.1-.75.25-.94.14-.17.23-.21.43-.21.43 0 .69.37.69 1a4.02 4.02 0 00.75 2.34c.45.62.9.91 1.56 1 .55.09.76.25.85.7.08.37-.01.78-.24 1.01-.14.14-.23.16-.6.15-1.04-.03-2.13-.8-2.84-2l-.15-.26-.35.52c-1.47 2.22-3.91 2.36-5.49.33a6.77 6.77 0 01-.15-7.65l.2-.29-.33.06C10.5 5.27 8.86 6.58 7.8 8.5c-.2.36-.53 1.14-.75 1.75-.59 1.61-1.17 2.55-2.08 3.3-.86.71-2.37 1.19-2.84.9zm8.13 1.05c-.1 0-.21.02-.33.08a.64.64 0 00-.26.28c-.1.18-.11.37-.14.62-.05.48-.16.75-.4 1.04-.14.16-.24.25-.34.3s-.22.05-.4.03c-.28-.02-.46-.12-.64-.34s-.32-.57-.39-1.07c-.03-.25-.06-.43-.17-.62a.62.62 0 00-.29-.26.76.76 0 00-.3-.06.67.67 0 00-.6.4c-.08.18-.12.39-.14.63-.02.3-.2.77-.35.95a1.43 1.43 0 01-.33.27l-.19.09-.06.02c-.01.01-.04 0 0 0-.3 0-.6.15-.76.41a.96.96 0 00-.02.84.6.6 0 00.35.35c.15.05.27.05.4.05.66 0 1.27-.4 1.73-1 .11.16.23.32.38.45a2.13 2.13 0 001.6.53 2.2 2.2 0 001.7-.97c.27.37.64.71 1.06.87.29.1.61.13.92.1s.62-.07.89-.23c.3-.18.58-.45.8-.74.45.6 1 .93 1.68.97.36.02.65 0 .91-.1.42-.16.8-.5 1.08-.87.45.58 1.05 1 1.7 1 .2 0 .43-.04.62-.2s.23-.42.23-.62-.05-.43-.24-.6c-.17-.15-.37-.2-.57-.23a1.02 1.02 0 01-.63-.39 2.28 2.28 0 01-.25-.48 2.25 2.25 0 01-.12-.5c0-.22-.03-.42-.13-.6a.68.68 0 00-.59-.39.75.75 0 00-.3.06.62.62 0 00-.29.26c-.11.19-.13.37-.17.62-.11.77-.37 1.16-.72 1.33-.2.1-.39.13-.56.09s-.34-.15-.5-.34a1.7 1.7 0 01-.4-1.05 1.7 1.7 0 00-.15-.61.62.62 0 00-.25-.27.66.66 0 00-.33-.09.7.7 0 00-.61.34c-.12.2-.14.4-.17.65-.05.51-.13.7-.4 1.02-.25.29-.4.35-.68.35-.17 0-.28-.02-.37-.07s-.21-.16-.36-.34c-.26-.35-.33-.52-.38-1.05-.02-.21-.05-.4-.17-.58a.7.7 0 00-.58-.32z"/>
</svg>
