<svg xmlns="http://www.w3.org/2000/svg" width="24" height="24" viewBox="0 0 24 24">
  <path d="M5.33 15.96c-.16.28-.34 1.08-.15 1.53l.25.6c.1.29.58.61.88.67.5.1.67-.17.93-.5a1.66 1.66 0 00.33-.78c.06-.4.18-.82.05-1.2-.26-.73-.7-1.02-1.1-.99-.78.06-.94.2-1.19.66zm1.22.72c.04.2.16.29.11.5-.03.12-.22.35-.33.33-.16-.03-.26-.43-.2-.64.2-.66.36-.6.42-.2zm8.85.18c-.93.82-.88 2-1.15 3.2-.15.67-.31.9-.13 1.86.23 1.18 1.33 1.16 1.98 1.35.73.22 2.36.27 3-.19l1.32-1.03a5.58 5.58 0 001.56-1.88c.46-.92.53-.87.59-2.08.05-.93-.77-1.78-1.86-2-1.82-.37-4.25-.18-5.31.77zm5.13 1.74c.28.86-1.9 2.64-2.7 2.91-.33.11-.6.1-1.13-.03-.22-.06-.91-.16-.63-.87.2-.48.14-.57.31-1.44.19-.96.7-.91 1.43-1.03 1.74-.27 2.46-.33 2.72.46zM8.2 7.64c-.58.32-1.08 1.47-.82 2.34.34 1.13 2.61 1.33 3.92 1.4.58.03 1.7-.84 1.58-1.55-.18-1.1-.79-1.42-1.5-2.2-.8-.87-2.3-.46-3.18.02zm.99 1.03c.77-.74 1.3.17 1.63.44.6.47.61.64.15 1-.38.3-1.44-.02-1.9-.27-.52-.28-.28-.8.12-1.17zm.1-3.99c-1.32-.15-1.98.76-2.87 1.48-1.26 1.01-1.55 2.48-1.5 3.92.07 1.54 1.38 2.39 2.56 2.96 2.42 1.16 4.93.1 7.2-.35.94-.2 2.07-.5 2.5-1.38a3 3 0 00.18-2.15c-1-3.18-5.06-4.14-8.06-4.48zM9.2 6.35c.8 0 2.46.5 3.22.7 1.19.3 1.91.8 2.56 1.3 1.27.94.6 2.12-.39 2.51-1.3.52-2.69.72-3.95.85-1.96.2-3.21-.46-3.65-1.27-.1-.17-.24-1.6-.2-1.8.29-1.34 1.37-2.3 2.41-2.3zM6.82 2.27c-2.96 1-3.94 3.01-4.4 5.21a8.4 8.4 0 00.95 5.39c.81 1.6-.75 3.14-.52 4.98.2 1.53.54 1.77 1.88 2.65.6.39 2.44 1.91 3.45 2.1 1.84.32 3.07.4 3.95-1.18.66-1.17.92-2.13 1.34-3.35.4-1.18 1.53-1.87 2.64-2.36a29.7 29.7 0 005.22-2.9c1.44-1 1.38-3.01 1.12-4.56-.26-1.57-.7-3.37-2.12-4.27a6.99 6.99 0 00-2.92-.87c-1.9-.23-4.71.19-5.74-.36a5.93 5.93 0 00-4.85-.48zm2.8 1.56c.57.04.7.52 1.9.68 2.07.27 3.99-.02 6.05.3.84.13 1.83.53 2.31 1.26.9 1.36 1.44 3.17.7 4.62-1.6 3.19-6.25 2.93-8.16 5.52-.84 1.14-1.28 3.1-1.57 3.8-.87 2.08-3.2.64-4.02.04-.32-.24-2.64-1.17-2.57-2.39.18-2.94 1.46-4.1.62-5.78-.63-1.26-1.07-2.75-.68-4.1A5.76 5.76 0 017.53 4c.7-.32 1.32-.2 2.08-.14z"/>
</svg>
