<svg xmlns="http://www.w3.org/2000/svg" width="24" height="24" viewBox="0 0 24 24">
  <path d="M14.9 14.5H4.6c-.6 0-1 .4-1 1s.4 1 1 1h10.3c1 0 2 .7 2.2 1.8.2 1.1-.4 2.2-1.6 2.5-1 .2-2.1-.4-2.4-1.5-.2-.4-.6-.7-1-.7-.6 0-1 .4-1 1v.3c.7 2.1 2.8 3.2 4.9 2.7a4.1 4.1 0 003.1-3.1c.5-2.2-.8-4.5-3-5.1-.4.1-.9.1-1.2.1zM19.1 13.1H1.5c-.6 0-1-.4-1-1s.4-1 1-1h17.6c1 0 2-.7 2.2-1.8.2-1.2-.4-2.2-1.6-2.5-1-.2-2.1.4-2.4 1.5-.2.4-.5.6-.9.7h-.1c-.6 0-1-.4-1-1v-.3c.7-2.1 2.8-3.2 4.9-2.7 1.6.4 2.7 1.6 3.1 3.1.5 2.2-.8 4.5-3.1 5-.5-.1-.8 0-1.1 0z"/>
  <path d="M3.5 9.7h5.2c2.4 0 4.2-1.9 4.2-4.2 0-.3 0-.7-.1-1-.4-1.5-1.6-2.6-3-3-2.1-.5-4.3.6-5 2.7-.1.6.2 1.1.7 1.2.1.1.2.1.3.1.4 0 .8-.3.9-.6.3-1.1 1.5-1.8 2.6-1.5s1.8 1.4 1.6 2.4-1.2 1.8-2.2 1.8H3.5a1 1 0 00-1 1c0 .5.5 1.1 1 1.1z"/>
</svg>
