<svg xmlns="http://www.w3.org/2000/svg" width="24" height="24"><path d="M16.175 9.606c-.796-.47-1.41.474-.768.875.317.215.708.5.594.784-.08.305-.417.598-.634.704-.893.65-.017 1.565.592 1.08.297-.152.566-.46.83-.672.3-.41.446-.635.463-1.13-.015-.645-.17-.84-.374-1.128-.264-.248-.333-.326-.703-.51zm-7.28 3.93c-.676.18-1.172.347-1.655.7a2.71 2.71 0 0 0-.784.919c-.233.444-.37.954-.386 1.455-.01.314.078.63.18.927.075.22.192.427.316.625.144.23.32.435.492.645l.31.355.576.576c.814.754 1.756-.102 1.077-.836-.298-.322-.304-.26-.637-.686-.392-.502-.898-.99-.912-1.58-.02-.786.18-1.032.64-1.407.595-.483.758-.374 1.14-.52 1.17-.448.57-1.423-.357-1.176zm6.158-10.312c-.552.18-1 .31-1.54.785-.563.493-.823.94-.767 1.706.05.7.434 1.096.975 1.47.672.466 1.146.7 1.963 1.052.667.28 1.77.713 2.117 1.456.225.482.393.802.354 1.693-.04.956-.213 1.237-.585 1.75-.36.497-.402.53-1.104 1.114-.908.755-.986 1.018-1.278 1.645-.276.593-.402 1.41-.373 1.925.035.626.312 1.45.545 1.89.205.388.54.835.992 1.144a4.92 4.92 0 0 0 1.109.618c1.15.5 1.67-.724.797-1.232-.512-.3-1.158-.744-1.385-1.163-.33-.608-.53-1.543-.332-2.075.17-.452.482-1.14 1.013-1.564s.983-.81 1.414-1.467c.627-.958.653-1.27.717-1.88.08-.743.1-1.767-.207-2.428-.45-.94-.35-.75-.687-1.2-.388-.505-.834-.768-1.496-1.146-.724-.413-.848-.315-1.625-.683-.305-.144-.98-.43-1.21-.665s-.302-.723.26-1.122c.676-.48 1.404-.533 2.127-.738 1.164-.33.746-1.578-.468-1.225m-3.8-.66c-.966.265-1.865.457-2.903.89-.667.278-1.456.953-1.506 1.983-.05 1.013.262 1.684 1.028 2.39.543.5 1.138.65 1.454 1.24.35.652.06 1.654-.56 1.834l-3.35.97c-.8.307-1.708.82-2.29 1.424-.654.676-1.028 1.22-1.224 1.962-.17.644-.217.916-.168 1.59.033.448.228 1.343.62 1.947.475.732.98 1.5 1.6 2.14.647.667 1.715-.25 1.056-1.023-.61-.717-.877-.995-1.557-2.112-.487-.8-.285-2.045.197-2.84.25-.41.746-1.057 1.87-1.517.777-.318 1.586-.517 2.09-.69.537-.183 2.004-.296 2.642-.998.916-1.008.967-1.595.865-2.438-.085-.707-.488-1.217-1.16-1.813-.588-.523-1.658-.623-1.556-1.935.063-.812 1.107-1.076 1.592-1.2l1.81-.472c1.205-.302.835-1.7-.548-1.32z" dominant-baseline="auto" fill="#a5a5a5"/></svg>