<svg xmlns="http://www.w3.org/2000/svg" width="24" height="24" viewBox="0 0 24 24">
  <path d="M20.3 23c-.8 0-1.5-.3-2-.8-.7.6-1.5.8-2.2.8-.8 0-1.5-.3-2-.8-.6.5-1.5.8-2.1.8-.8 0-1.5-.3-2-.8-.7.5-1.6.8-2.2.8-.8 0-1.5-.3-2-.8-.7.5-1.5.8-2.2.8a1 1 0 010-2c.4 0 1.2-.2 1.3-1.4v-.3c0-.5.5-1 1-.9.5 0 1 .5 1 1v.2c0 .3.1.9.3 1.2.1.1.2.2.6.2.4 0 1.2-.2 1.3-1.4v-.3c0-.5.5-1 1-.9.5 0 1 .5 1 1v.2c0 .3.1.9.3 1.2.1.1.2.2.6.2.4 0 1.2-.2 1.3-1.4v-.3c0-.5.5-1 1-.9.5 0 1 .5 1 1v.2c0 .3.1.9.3 1.2.1.1.2.2.6.2.4 0 1.2-.2 1.3-1.4v-.3c0-.5.5-1 1-.9.5 0 1 .5 1 1v.2c0 .3.1.9.3 1.2.1.1.2.2.6.2.6 0 1 .4 1 1s-.5 1-1.1 1zM1.5 17.7c-.5 0-.9-.4-1-.9-.1-.5.3-1 .9-1.1 1.2-.2 2.2-.9 2.9-2 .2-.3.4-.7.5-1.1l.1-.4c.2-.5.5-.9.7-1.3.1-.2.2-.4.4-.7.4-.9 1-1.7 1.6-2.4 1.4-1.5 3.4-2.5 5.6-3 .8-.1 1.9-.3 2.8.3.3.2.5.5.4.9 0 .4-.2.7-.5.8-.8.4-1.3.7-1.8 1.2-.3.3-.5.8-.7 1.5-.3 1.2-.3 2.4-.1 3.4.2 1 .7 1.8 1.3 2.2.4.3 1 .3 1.6.1.6-.3 1-.7 1.3-1.5.3-.6.4-1.2.5-1.8 0-.2.1-.5.1-.7.1-.5.6-.8 1.1-.8.5.1.9.6.8 1.1-.1 1 .1 1.9.5 2.5.5.7 1.2 1.2 2 1.4.5.1.9.6.8 1.2-.1.5-.6.9-1.2.8-1.3-.2-2.6-1.1-3.3-2.2-.5.8-1.2 1.5-2.1 1.8-1.3.5-2.6.3-3.5-.3-1-.7-1.8-2-2.1-3.4-.3-1.3-.3-2.8.1-4.3.5-.8.8-1.5 1.2-2a9.7 9.7 0 00-3.3 2c-.5.6-1 1.4-1.5 2.1-.1.2-.2.4-.4.7-.2.4-.4.7-.6 1.1l-.1.3c-.2.4-.4.9-.6 1.4a6.1 6.1 0 01-4.3 3c0 .1-.1.1-.1.1z"/>
  <path d="M20.3 7.5c-1.8 0-3.2-1.4-3.2-3.2S18.5 1 20.3 1s3.2 1.4 3.2 3.2-1.4 3.3-3.2 3.3zm0-5.3c-1.1 0-2.1.9-2.1 2.1s.9 2.1 2.1 2.1 2.1-.9 2.1-2.1-.9-2.1-2.1-2.1z"/>
  <path d="M21.3 4.9h-1.1c-.2 0-.4-.2-.4-.4V3c0-.2.2-.4.4-.4s.4.2.4.4v1.2h.7c.2 0 .4.2.4.4 0 .1-.2.3-.4.3z"/>
</svg>
