<svg xmlns="http://www.w3.org/2000/svg" width="24" height="24" viewBox="0 0 24 24">
  <path d="M15 14.3H4.7c-.6 0-1 .4-1 1s.4 1 1 1H15c1 0 2 .7 2.2 1.8.2 1.1-.4 2.2-1.6 2.5-1 .2-2.1-.4-2.4-1.5-.2-.4-.6-.7-1-.7-.6 0-1 .4-1 1v.3c.7 2.1 2.8 3.2 4.9 2.7a4.1 4.1 0 003.1-3.1c.5-2.2-.8-4.5-3-5.1-.4.1-.9.1-1.2.1zM19.2 12.9H1.6c-.6 0-1-.4-1-1s.4-1 1-1h17.6c1 0 2-.7 2.2-1.8.2-1.2-.4-2.2-1.6-2.5-1-.2-2.1.4-2.4 1.5-.2.4-.5.6-.9.7h-.1c-.6 0-1-.4-1-1v-.3c.7-2.1 2.8-3.2 4.9-2.7 1.6.4 2.7 1.6 3.1 3.1.5 2.2-.8 4.5-3.1 5-.5-.1-.8 0-1.1 0z"/>
  <path d="M3.6 9.5h5.2c2.4 0 4.2-1.9 4.2-4.2 0-.3 0-.7-.1-1-.4-1.5-1.6-2.6-3-3-2.1-.5-4.3.6-5 2.7-.1.6.2 1.1.7 1.2.1.1.2.1.3.1.4 0 .8-.3.9-.6.3-1.1 1.5-1.8 2.6-1.5s1.8 1.4 1.6 2.4-1.2 1.8-2.2 1.8H3.6a1 1 0 00-1 1c0 .5.5 1.1 1 1.1z"/>
  <path d="M14.6 6.4c-.2 0-.4 0-.5-.1-.5-.3-.6-.9-.3-1.4C15.4 2.3 18.2.7 21.2.6c.5 0 1 .4 1 1s-.4 1-1 1A7.1 7.1 0 0015.5 6c-.2.3-.5.4-.9.4z"/>
  <path d="M22.4 18.9c-.4 0-.8-.3-1-.7-.3-1.2-1.3-2.3-2.5-2.7-.5-.2-.8-.8-.6-1.3.2-.5.8-.8 1.3-.6 1.8.6 3.3 2.2 3.8 4.1.1.5-.2 1.1-.7 1.2-.1-.1-.2 0-.3 0z"/>
  <path d="M5.6 23.4c-1.6 0-2.4-1.2-2.7-1.9-.2-.5.1-1.1.6-1.3.5-.2 1.1.1 1.3.6.1.1.3.7 1 .6.3 0 .5-.2.5-.3.2-.2.2-.7.1-1.1-.1-.3-.6-.3-.6-.3H1.6c-.6 0-1-.4-1-1s.4-1 1-1h4.2c.8 0 2.1.4 2.5 1.8.3 1 .1 2-.3 2.7-.3.4-.9 1-1.9 1.1-.3.1-.4.1-.5.1z"/>
</svg>
