<svg xmlns="http://www.w3.org/2000/svg" width="24" height="24" viewBox="0 0 24 24">
  <path fill="#a5a5a5" d="M19 20h-6v-5h-2v7h10v-7h-2zM13 4h6v2h-4v2h4v1.9h2V2H11v7.84h2zm9.93 9.37a1 1 0 01-1.3.56l-3-1.02c-1.22-.42-1.9-.13-2.76.12l-2.14.6c-1.4.4-2.78.66-4.15-1.15L7.26 9.13c-.69-.99-.38-1.47-1.57.36l-.9 1.52c-.9 1.4-2.42 2.92-2.42 2.92-.74 1-2.34-.24-1.4-1.24.65-.72 1.66-1.73 2.51-3S5 6.89 5.58 6.28c.91-.91 1.67-.62 2.66.9L11 11.2c.62 1 1.84.69 2.87.42l1.55-.4c.9-.24 2.29-.7 4.1-.13l2.8.96a1 1 0 01.6 1.3z"/>
</svg>
