<?xml version="1.0" encoding="UTF-8"?>
<svg version="1.1" viewBox="0 0 24 24" xmlns="http://www.w3.org/2000/svg" xmlns:cc="http://creativecommons.org/ns#" xmlns:dc="http://purl.org/dc/elements/1.1/" xmlns:rdf="http://www.w3.org/1999/02/22-rdf-syntax-ns#">
<metadata>
<rdf:RDF>
<cc:Work rdf:about="">
<dc:format>image/svg+xml</dc:format>
<dc:type rdf:resource="http://purl.org/dc/dcmitype/StillImage"/>
<dc:title/>
</cc:Work>
</rdf:RDF>
</metadata>
<path d="m12.721 15.191c0.57624-1.3049 0.80279-1.4189 0.83846-3.002 0.02806-1.245-0.79176-2.0664-0.81413-2.5986-0.031524-0.75004 0.17687-0.70611 0.2374-1.5269 0.03822-0.51818-0.53143-1.1975-0.40437-1.9351 0.097248-0.56454 0.48655-1.456 0.48655-1.456l1.4872 0.61971-0.86635-4.6671-3.8324 2.8941 1.3806 0.49319c-0.20847 0.66355-0.611 1.1977-0.59911 1.9144 0.01339 0.80638 0.34449 1.0289 0.35784 1.6773 0.02003 0.97252-0.49344 0.79219-0.54035 2.0868-0.03928 1.0839 1.0665 1.5704 1.0181 2.5396-0.04055 0.81053-0.03131 0.70835-0.72063 2.0671-0.54762 1.3579 1.4521 1.9852 1.9712 0.89352z" stroke-width="1.2"/>
<path d="m18.892 20.76c-1.1565-0.54386-3.1255-1.0378-5.4279-0.22238-0.98391 0.35054-1.8346 0.41408-3.293-0.06354-2.053-0.78386-4.2246-0.44305-5.1737 0.24476-0.91558 0.66356 0.16567 2.075 0.87727 1.6058 1.3701-0.80571 2.3234-0.79843 3.7071-0.16824 1.4482 0.55054 3.0511 0.77292 4.4358 0.19062 1.6698-0.75785 2.5389-0.51071 4.0248 0.2 1.1617 0.67863 2.0937-0.99472 0.84959-1.787z" stroke-width=".78418"/>
<path d="m2.5292 19.28c1.8394 0.0055 17.639-0.08501 19.311-0.12708 1.7551 0.01817 1.8181-2.2-0.11681-2.2047-1.7653-0.04727-17.279-0.02757-19.126 1e-6 -1.9385-0.02032-1.8434 2.3479-0.068033 2.3318z" stroke-width=".88487"/>
<path d="m17.879 14.814c0.23534-0.6738 0.58979-1.3525 0.61863-2.175 0.03822-1.09-0.49331-1.4262-0.36624-2.1638 0.09725-0.56454 0.48655-1.3797 0.48655-1.3797l1.4872 0.61971-0.86635-4.6671-3.8324 2.8941 1.3806 0.49319c-0.20847 0.66355-0.611 1.1977-0.59911 1.9144 0.01339 0.80638 0.34449 1.0289 0.35784 1.6773 0.02003 0.97252-0.18845 1.2115-0.54035 2.0868-0.5775 1.3103 1.3223 1.9596 1.8737 0.70009z" stroke-width="1.2"/>
<path d="m6.8615 14.742c0.23534-0.6738 0.58979-1.3525 0.61863-2.175 0.03822-1.09-0.49331-1.4262-0.36624-2.1638 0.097248-0.56454 0.48655-1.3797 0.48655-1.3797l1.4872 0.61971-0.86635-4.6671-3.8324 2.8941 1.3806 0.49319c-0.20847 0.66355-0.61101 1.1977-0.59911 1.9144 0.013392 0.80638 0.34449 1.0289 0.35784 1.6773 0.020028 0.97252-0.18845 1.2115-0.54035 2.0868-0.5775 1.3103 1.3223 1.9596 1.8737 0.70009z" stroke-width="1.2"/>
</svg>
