<svg xmlns="http://www.w3.org/2000/svg" width="24" height="24" viewBox="0 0 24 24">
  <path d="M12 7.5c.9 0 1.6.7 1.6 1.7s-.7 1.6-1.6 1.6-1.6-.7-1.6-1.6.7-1.7 1.6-1.7m0-2c-2 0-3.6 1.6-3.6 3.7s1.6 3.6 3.6 3.6 3.6-1.6 3.6-3.6S14 5.5 12 5.5z"/>
  <path d="M12 .5C5.6.5.5 5.6.5 12S5.6 23.5 12 23.5 23.5 18.4 23.5 12 18.4.5 12 .5zM6.1 19.4c1.5-1.1 6.6-4.1 11.8 0a9.43 9.43 0 01-5.9 2.1c-2.2 0-4.3-.8-5.9-2.1zM19.4 18c-6.6-5.4-13.2-1.1-14.7 0a9.56 9.56 0 017.4-15.5c5.2 0 9.5 4.3 9.5 9.5-.1 2.3-.9 4.4-2.2 6z"/>
</svg>
