<svg xmlns="http://www.w3.org/2000/svg" width="24" height="24" viewBox="0 0 24 24">
  <path d="M7 22.6c-1.2 0-1.8-.1-2-.2-.5-.3-.6-1-.1-1.4.2-.2.4-.2 1-.2.4.1 2.2.1 3.1 0h.8l.6-.1c.7-.2 1.8-.5 1.9-.5 0 0 .3-.2.5-.3l.5-.3.3-.4c.3-.3.4-.5.7-1 .4-.6.4-.7.8-1.6l.4-.9.5-.7.6-.8.5-.3.5-.3.5-.1 1-.2c.6 0 .6 0 .5-.2-.6-2-1.3-4-1.3-4.1 0-.2 0-.5.2-.7.2-.3.5-.3.8-.2.2.1.3.2.4.4 0 .1 1.3 4 1.5 4.6 0 .1.1.2.1.2h.7c.8 0 1.1 0 1.2.1.2.1.4.4.4.7 0 .3-.2.6-.4.7-.1.1-.1.1-1.4.1h-2.1c-.8 0-.8 0-1.1.1-.2.1-.4.1-.6.2l-.3.2-.5.6-.4.6-.4.9c-.4.8-.4.8-.8 1.5s-.5.8-.9 1.3l-.4.5-.7.5-.7.5-.8.2-1.5.4-.6.1H8.1c-.1.1-.6.1-1.1.1zm-.5-4c-.4 0-.6-.1-1.1-.2-.4-.2-1.4-.6-1.7-.7-.5-.2-1-.3-1.3-.2-.1 0-.2.1-.4.1-.5.2-.6.2-.8.2s-.3-.1-.5-.2c-.2-.2-.2-.3-.2-.5s0-.4.2-.5c.1-.2.3-.2.9-.4.7-.2.7-.2 1.2-.2s.5 0 .8.1c.2.1.4.1.5.2.4.2 1.1.5 1.7.7l.6.2h1.5c.3-.1.7-.2 1.8-.6 1.2-.5 1.2-.5 1.5-.5.6-.1 1.7.1 2.3.4.4.2.6.4.6.8 0 .2 0 .2-.1.3-.1.3-.4.4-.7.4-.1 0-.2 0-.5-.1-.5-.2-1.3-.3-1.5-.3-.1 0-.4.1-.6.2-1.8.7-2.2.8-2.7.9-.3-.1-1.1-.1-1.5-.1zm6.8-2.8c-.2 0-.5-.2-.6-.4-.1-.2-.9-2.6-1.2-3.7-.4-1.3-.4-1.3-.4-1.5 0-.3.2-.6.4-.7.2-.1.5-.1.7 0 .1.1.3.2.4.4 0 .1.2.6.4 1.3.2.7.5 1.7.8 2.4.4 1.1.4 1.2.4 1.4s0 .2-.1.3c-.1.3-.4.5-.8.5zM9 10.4c-.1-.1-.3-.2-.3-.4-.1-.1-.1-.5 0-.6 0-.1.8-1.7 1.8-3.6 1.2-2.4 1.8-3.5 1.9-3.7.4-.6 1.1-.9 1.8-.8.4 0 .1-.2 4.6 2.4C20 4.4 21 5 21.1 5c.1.1.2.3.2.6v.3c0 .2-.2.4-.3.4-.2.2-4.4 1.7-4.6 1.7-.3 0-.5-.1-.7-.4-.1-.1-.1-.2-.1-.4s0-.2.1-.4c.1-.3.1-.3 1.5-.8.7-.2 1.3-.4 1.3-.5.1-.1.1-.1-2.2-1.3L14.1 3l-.2.1c-.2 0-.4.1-.5.2 0 0-.9 1.6-1.9 3.5s-1.8 3.5-1.8 3.5c0 .1-.1.1-.2.2s-.1.1-.3.1-.1-.1-.2-.2z"/>
</svg>
