<svg xmlns="http://www.w3.org/2000/svg" width="24" height="24"><path d="M5.327 15.956c-.157.286-.335 1.08-.15 1.533l.25.61c.112.276.585.603.88.66.508.098.675-.173.937-.502a1.66 1.66 0 0 0 .323-.779c.06-.393.182-.816.05-1.2-.257-.728-.688-1.017-1.1-.986-.778.057-.94.207-1.186.654zm1.226.723c.032.21.153.287.107.493-.03.132-.22.362-.332.34-.155-.032-.26-.428-.197-.64.2-.66.358-.6.422-.193zm8.843.18c-.924.826-.878 1.998-1.15 3.197-.15.67-.31.9-.126 1.86.228 1.184 1.328 1.16 1.975 1.356.736.223 2.36.27 3-.19l1.326-1.03c.676-.575 1.162-1.075 1.56-1.88.454-.92.525-.87.588-2.077.05-.938-.768-1.784-1.863-2.006-1.815-.368-4.248-.18-5.31.77zm5.134 1.745c.277.86-1.9 2.635-2.705 2.908-.33.112-.586.103-1.13-.033-.22-.055-.908-.162-.622-.872.193-.48.136-.564.31-1.44.187-.953.7-.91 1.43-1.024 1.74-.275 2.46-.334 2.716.462zM8.2 7.64c-.583.318-1.08 1.465-.818 2.338.34 1.133 2.612 1.33 3.914 1.4.585.027 1.697-.834 1.583-1.55-.177-1.107-.787-1.415-1.507-2.204-.8-.866-2.296-.45-3.172.026zm.987 1.032c.772-.744 1.3.172 1.632.437.592.47.612.64.147 1.004-.374.294-1.44-.024-1.902-.276-.51-.277-.27-.788.122-1.165zm.112-3.992c-1.33-.15-1.987.755-2.877 1.475-1.257 1.017-1.552 2.483-1.494 3.922.062 1.542 1.374 2.392 2.55 2.96 2.418 1.167 4.928.107 7.197-.35.948-.19 2.078-.5 2.507-1.378.315-.644.39-1.464.174-2.147-.998-3.18-5.057-4.146-8.057-4.48zM9.2 6.345c.792 0 2.46.498 3.222.698 1.187.312 1.908.808 2.56 1.3 1.266.95.603 2.13-.39 2.52-1.307.514-2.69.712-3.95.842-1.957.2-3.212-.45-3.65-1.262-.096-.178-.245-1.603-.204-1.796.292-1.35 1.368-2.3 2.412-2.3zM6.82 2.28c-2.965.997-3.936 3.013-4.392 5.213-.374 1.8.1 3.725.94 5.386.812 1.605-.745 3.14-.517 4.976.2 1.53.54 1.778 1.884 2.658.59.387 2.438 1.91 3.443 2.088 1.844.326 3.068.408 3.953-1.174.655-1.172.915-2.123 1.34-3.346.4-1.18 1.525-1.87 2.64-2.358 2.027-.9 3.6-1.76 5.224-2.895 1.44-1.005 1.373-3.02 1.116-4.57-.26-1.567-.694-3.372-2.12-4.272-.865-.546-1.92-.747-2.922-.866-1.904-.227-4.71.19-5.74-.36-1.42-.756-3.045-1.088-4.85-.48zM9.62 3.836c.572.048.697.525 1.9.684 2.074.272 3.986-.02 6.053.302.84.13 1.828.532 2.31 1.262.895 1.354 1.433 3.165.702 4.615-1.607 3.187-6.26 2.932-8.167 5.52-.84 1.142-1.277 3.106-1.57 3.806-.873 2.076-3.202.63-4.023.03-.32-.233-2.64-1.164-2.566-2.382.18-2.944 1.457-4.105.62-5.783-.63-1.265-1.065-2.754-.68-4.094.543-1.888 1.756-3.092 3.333-3.8.7-.323 1.314-.215 2.078-.15z" dominant-baseline="auto" fill="#a5a5a5" fill-opacity=".992"/></svg>