<?xml version="1.0" encoding="UTF-8"?>
<svg version="1.1" viewBox="0 0 24 24" xmlns="http://www.w3.org/2000/svg" xmlns:cc="http://creativecommons.org/ns#" xmlns:dc="http://purl.org/dc/elements/1.1/" xmlns:rdf="http://www.w3.org/1999/02/22-rdf-syntax-ns#">
<metadata>
<rdf:RDF>
<cc:Work rdf:about="">
<dc:format>image/svg+xml</dc:format>
<dc:type rdf:resource="http://purl.org/dc/dcmitype/StillImage"/>
<dc:title/>
</cc:Work>
</rdf:RDF>
</metadata>
<path d="m15.179 11.796c-0.29194 0.78724-1.4321 2.1106-2.7086 2.9287-1.537 0.98508-3.223 1.3994-3.223 1.3994l-0.19436-2.3303s1.4778-0.38051 2.5077-1.2428c0.6678-0.55915 1.7357-1.9758 1.9006-2.5192 0.41633-1.3715 0.11374-2.5681-0.25653-3.5289-0.33281-0.86361-0.83431-1.3418-1.4466-1.8741-1.0413-0.9052-2.2991-1.0189-3.1343-1.0271-1.7493-0.017132-3.3612 1.2273-4.2191 2.6-0.90218 1.1586-0.94665 3.5572-0.254 4.7539 0.72331 1.2497 1.6055 2.1938 3.1315 2.7607 1.258 0.46729 1.7708 0.07754 1.7708 0.07754l0.19436 2.3303s-1.1457 0.0822-2.135-0.12609c-0.90225-0.18996-2.1791-0.65275-2.5623-0.89176-2.2099-1.3785-3.3411-4.6192-3.2497-6.5081 0.09454-1.9528 0.97665-3.6036 2.4561-5.2122 1.531-1.6647 3.0562-2.0124 5.0562-2.0124 1.8207 0 2.7433 0.30842 3.8483 1.0823 0.65504 0.45876 1.3936 1.3328 2.1202 2.1514 0.40367 0.45479 1.0935 2.3136 1.0986 3.9539 0.0051 1.6177-0.52668 2.7653-0.70081 3.2348z"/>
<path d="m11.607 19.763c-0.0049-0.48039-0.40254-1.0652-1.103-1.0657-0.61793-3.69e-4 -1.0444 0.52854-1.0455 1.0808-0.0011 0.58386 0.44292 1.1167 1.1164 1.1147 0.6189-0.0018 1.0381-0.53865 1.0321-1.1298z"/>
<path d="m8.3526 5.6906c-0.0049-0.48039-0.40255-1.0652-1.103-1.0657-0.61793-3.69e-4 -1.0444 0.52854-1.0455 1.0808-0.0011 0.58386 0.44292 1.1167 1.1164 1.1147 0.6189-0.0018 1.0381-0.53865 1.0321-1.1298z"/>
<path d="m6.5809 8.491c-0.00488-0.48039-0.40255-1.0652-1.103-1.0657-0.61793-3.69e-4 -1.0444 0.52854-1.0455 1.0808-0.0011 0.58386 0.44292 1.1167 1.1164 1.1147 0.6189-0.0018 1.0381-0.53865 1.0321-1.1298z"/>
<path d="m11.61 10.548c-0.0049-0.48039-0.40255-1.0652-1.103-1.0657-0.61793-3.69e-4 -1.0444 0.52854-1.0455 1.0808-0.0011 0.58386 0.44292 1.1167 1.1164 1.1147 0.6189-0.0018 1.0381-0.53865 1.0321-1.1298z"/>
<path d="m22.327 19.399c-0.18392 0.49596-0.90223 1.3297-1.7064 1.8451-0.9683 0.6206-2.0305 0.8816-2.0305 0.8816l-0.10224-1.6702s0.93099-0.34075 1.5798-0.88402c0.42072-0.35226 0.77017-0.88107 0.8741-1.2234 0.26229-0.86402 0.13228-1.5977-0.101-2.203-0.20967-0.54407-0.60644-0.80495-0.99216-1.1402-0.65604-0.57028-1.1251-0.50046-1.6513-0.50562-1.102-0.01079-1.9155 0.71259-2.456 1.5774-0.56837 0.72994-0.3135 2.241 0.12286 2.995 0.45569 0.78733 0.5265 0.83655 1.4879 1.1937 0.79251 0.29439 1.1358 0.19029 1.1358 0.19029l0.10224 1.6702s-0.72181 0.05179-1.3451-0.07943c-0.56841-0.11968-1.3728-0.41123-1.6142-0.56181-1.3923-0.86843-2.1049-2.9101-2.0473-4.1001 0.05956-1.2302 0.61529-2.2703 1.5473-3.2837 0.96452-1.0487 1.9254-1.2678 3.1854-1.2678 1.147 0 1.7283 0.1943 2.4244 0.68187 0.41268 0.28902 0.87798 0.83965 1.3357 1.3554 0.25431 0.28652 0.68888 1.4576 0.69213 2.4909 0.0032 1.0192-0.33181 1.7421-0.44151 2.038z" stroke-width=".63"/>
<path d="m18.451 18.593c-0.0049-0.48039-0.40255-1.0652-1.103-1.0657-0.61793-3.69e-4 -1.0444 0.52854-1.0455 1.0808-0.0011 0.58386 0.44292 1.1167 1.1164 1.1147 0.6189-0.0018 1.0381-0.53865 1.0321-1.1298z"/>
</svg>
