<svg xmlns="http://www.w3.org/2000/svg" width="24" height="24" viewBox="0 0 24 24">
    <path fill="#A5A5A5" fill-rule="evenodd" d="M19 13H2a1 1 0 0 1 0-2h16.89A2.08 2.08 0 0 0 21 9.34a2 2 0 0 0-3.87-1 .86.86 0 0 1-.8.63h-.13a1 1 0 0 1-1-1.28 4 4 0 0 1 4.73-2.61 4 4 0 0 1 2.95 3A4 4 0 0 1 19 13zM4 9h5a4 4 0 0 0 3.89-5A4 4 0 0 0 10 1.13a4 4 0 0 0-4.8 2.61A1 1 0 0 0 6.15 5a1 1 0 0 0 .95-.63 2 2 0 0 1 3.87 1A2.08 2.08 0 0 1 8.89 7H4a1 1 0 1 0 0 2zm11 6H5a1 1 0 0 0 0 2h9.89A2.08 2.08 0 0 1 17 18.66a2 2 0 0 1-3.87 1 1 1 0 0 0-.95-.63 1 1 0 0 0-1 1.26 4 4 0 0 0 4.74 2.63 4 4 0 0 0 3-2.95A4 4 0 0 0 15 15z"/>
</svg>
