<svg xmlns="http://www.w3.org/2000/svg" width="24" height="24" viewBox="0 0 24 24">
  <path fill="#a5a5a5" d="M6.94 23.6a6.64 6.64 0 01-2-.2c-.48-.25-.56-1.01-.16-1.4.21-.21.37-.24.98-.16.55.06 2.3.08 3.27.04l.8-.04.63-.14c.72-.17 1.85-.46 1.92-.5l.51-.33.47-.31.3-.38a9.07 9.07 0 001.44-2.59l.39-.94.55-.78.56-.78.5-.3.49-.3.5-.15c.5-.13.5-.13.99-.15.56-.02.57-.02.5-.21-.64-2-1.3-4.09-1.32-4.19a.87.87 0 01.2-.7.73.73 0 01.84-.23c.16.07.33.22.41.36a254.36 254.36 0 011.62 4.93c.03.03.2.03.65.03.82 0 1.07.03 1.24.12.24.14.38.4.38.74 0 .32-.17.59-.44.72-.12.06-.14.06-1.41.08l-2.12.04c-.84.03-.84.03-1.15.12-.24.07-.36.12-.56.24l-.27.16-.4.57-.4.57-.37.9a9.2 9.2 0 01-.8 1.63c-.4.69-.45.78-.85 1.26l-.43.53-.7.48-.7.47-.8.2c-.42.12-1.1.29-1.49.38l-.71.16-.9.04-1.04.04-1.12-.03zm-.43-4.01a3.13 3.13 0 01-1.1-.24l-1.84-.73c-.53-.24-.96-.3-1.33-.18l-.4.13c-.52.18-.62.2-.82.18-.2 0-.3-.05-.46-.21a.59.59 0 01-.2-.48c0-.23.03-.35.15-.5.13-.15.28-.22.9-.42.74-.25.75-.25 1.32-.23.47 0 .5.01.82.1l.54.2c.36.16 1.1.46 1.67.67l.55.2.7.01c.45 0 .74 0 .86-.02.3-.05.69-.18 1.8-.6 1.24-.48 1.18-.46 1.48-.5a5.6 5.6 0 012.31.38c.45.2.61.4.61.76 0 .15 0 .2-.07.33a.73.73 0 01-.67.4c-.12 0-.23-.03-.48-.12a4.07 4.07 0 00-1.54-.26l-.64.22c-1.78.68-2.17.8-2.71.88-.3.04-1.04.05-1.45.03zm6.88-2.88a.82.82 0 01-.56-.42c-.1-.21-.87-2.58-1.2-3.67-.37-1.26-.37-1.27-.36-1.47a.82.82 0 01.43-.71c.19-.1.47-.1.66-.01.14.07.31.24.38.37l.4 1.32c.2.67.54 1.75.76 2.38.38 1.14.4 1.16.4 1.37-.01.16-.02.25-.06.34a.8.8 0 01-.85.5zm-4.45-5.36a.78.78 0 01-.33-.37c-.07-.15-.1-.47-.04-.63.02-.07.84-1.69 1.83-3.6a94.34 94.34 0 011.93-3.66 2.04 2.04 0 011.76-.84c.43.02.07-.16 4.71 2.37a70.2 70.2 0 012.35 1.32c.13.13.21.32.23.55 0 .11 0 .25-.02.31a.86.86 0 01-.3.45 97.1 97.1 0 01-4.6 1.63c-.28.03-.53-.13-.67-.41a.67.67 0 01-.08-.4c0-.18 0-.23.07-.37.14-.31.13-.3 1.52-.8a58.1 58.1 0 001.28-.46c.12-.07.06-.1-2.2-1.34l-2.25-1.22-.19.01a.71.71 0 00-.5.24c-.05.05-.88 1.63-1.86 3.5-.97 1.89-1.8 3.47-1.84 3.52a.9.9 0 01-.18.17c-.1.07-.15.08-.31.1-.16 0-.2 0-.31-.07zM6 1.87z"/>
</svg>
