<svg xmlns="http://www.w3.org/2000/svg" width="24" height="24" viewBox="0 0 24 24">
  <path d="M12 .2C5.5.2.2 5.5.2 12S5.5 23.8 12 23.8 23.8 18.5 23.8 12 18.5.2 12 .2zM6.2 19.4c.5-1 3.6-2.1 5.8-2.1s5.3 1 5.8 2.1c-1.6 1.3-3.6 2.1-5.8 2.1s-4.2-.8-5.8-2.1zm13.3-1.7C17.8 15.6 13.7 15 12 15s-5.8.7-7.5 2.7c-1.2-1.6-1.9-3.5-1.9-5.7 0-5.3 4.2-9.5 9.5-9.5s9.5 4.2 9.5 9.5c-.1 2.1-.9 4.1-2.1 5.7zM12 4.9C9.7 4.9 7.9 6.7 7.9 9s1.8 4.1 4.1 4.1 4.1-1.8 4.1-4.1-1.8-4.1-4.1-4.1zm0 5.9c-1 0-1.8-.8-1.8-1.8S11 7.3 12 7.3s1.8.8 1.8 1.8-.8 1.7-1.8 1.7z" fill="#a5a5a5"/>
</svg>
