<svg xmlns="http://www.w3.org/2000/svg" width="24" height="24" viewBox="0 0 24 24">
  <path d="M11.7 6.5c-.2-.2-.8-.5-1-.5-.4 0-.4-.1.4-1.3.5-.6 1.1-1.6 1.6-2.1.8-.9 2-2.1 2.2-2.1s0 .8-.4 1.9c-.5.9-2.5 4.3-2.6 4.3l-.2-.2zM9.4 8.2c-.6-.5-.2-1.4.7-1.4.6 0 .9.3.9.8.2.8-.9 1.2-1.6.6zM5 8.4C2.7 8.2.8 7.9.7 7.7c-.1-.3 2.6-.7 6-.8l1.7-.1-.1.2c-.2.4-.2.6 0 1l.1.3H7.2c-.7.2-1.7.1-2.2.1zM15.8 11c-.8-1.4-1.2-2.5-.9-2.5.2 0 1.1.9 1.9 2l.8 1-.4.2c-.2.1-.4.2-.5.3l-.2.2-.7-1.2zm3.1 1.8v-.5h.6c1.6 0 3.7.3 3.7.5s-1.3.4-3.3.5l-1 .1v-.6zm-1.7.3c-.3-.2-.3-.4 0-.7.1-.1.3-.2.5-.2.6 0 .9.7.4 1-.4.2-.6.2-.9-.1zm-2.9 1.3c-.8-.6-2.4-2.5-3.6-4.3-.4-.6-.4-.7 0-.7.2 0 .9-.3 1.1-.5.1-.2.2-.3.2-.3.2.1 2.2 3.6 2.5 4.4.4.9.6 1.8.4 1.8-.1-.1-.3-.2-.6-.4zm.5 2.4c0-.3.4-1.1 1.1-2.4l.6-1 .3.2c.2.1.4.2.5.2.2 0 .2 0-.1.4-.7 1-2.2 2.7-2.4 2.7v-.1zm2.2.8v-2.2l.5-.6.7-.7c.1-.1.1.5.1 2.7v2.8H16.9l.1-2zM9.2 15c0-4.1 0-5.3.1-5.2.1.1.5.6.9 1.1l.8 1v8.7l-.9-.4-.9-.4V15zm2.5 8.5c-.8 0-.9-.1-2.4-.6-.7-.3-1.3-.5-1.4-.6-.2-.1-.7-.3-1-.3-.2 0-.3 0-.9.2s-.8.1-1 .1c-.2 0-.3 0-.4-.1-.2-.1-.3-.2-.4-.4-.2-.1-.2-.2-.2-.4 0-.3.1-.4.2-.6.1-.2.3-.2.9-.4 1-.3 1-.3 1.7-.3.5 0 .5 0 1 .2.3.1.6.2.7.2.3.2 2.4 1 2.7 1s1.4.1 1.8 0c.4-.1.8-.2 2-.6 1.9-.7 1.8-.7 2.2-.7.9 0 2.1.2 2.8.5.4.2.6.5.6.9s-.2.7-.5.8c-.2.1-.2.1-.4.1s-.3 0-.4-.1-.3-.1-.4-.2c-.3-.1-1-.2-1.3-.2-.2 0-.2 0-1.9.6-.5.2-1.1.4-1.4.5-.9.4-1.5.5-2.6.4z"/>
</svg>
