<?xml version="1.0" encoding="utf-8"?>
<!-- Generator: Adobe Illustrator 24.0.3, SVG Export Plug-In . SVG Version: 6.00 Build 0)  -->
<svg version="1.1" id="Layer_1" xmlns="http://www.w3.org/2000/svg" xmlns:xlink="http://www.w3.org/1999/xlink" x="0px" y="0px"
	 viewBox="0 0 32 32" style="enable-background:new 0 0 32 32;" xml:space="preserve">
<style type="text/css">
	.st0{fill:#FFFFFF;}
	.st1{fill:#0A28A3;}
</style>
<g>
	<circle class="st0" cx="16" cy="16" r="13.5"/>
	<path class="st0" d="M16,32C7.2,32,0,24.8,0,16S7.2,0,16,0s16,7.2,16,16S24.8,32,16,32z M16,5.1C10,5.1,5.1,10,5.1,16
		c0,6,4.9,10.9,10.9,10.9c6,0,10.9-4.9,10.9-10.9C26.9,10,22,5.1,16,5.1z"/>
</g>
<g>
	<path class="st1" d="M2.5,16c0,7.4,6,13.5,13.5,13.5s13.5-6,13.5-13.5S23.4,2.5,16,2.5S2.5,8.6,2.5,16L2.5,16z M14,4.3h0.1
		c-1.5,1.4-2.2,3.5,2,2.6c4.5-1,9.1-1.1,6.3,2.1c-1.2,1.4,0.4,0.9,1.5,1.1c0.4,0.1,2.5,0.2,2,1.2c-4.4-0.4-12.8,3.9-15.1,8.7
		l-0.2-0.2c0.2-1.5,1.7-4.7,4.4-6.8c3.1-2.5,4.3-4.5,0.3-3.8C8.4,10.2,11.6,5.6,14,4.3L14,4.3z M21.3,14.4c5.7-2,6.1,0.2,4.7,1.1
		c-1.3,0.9-4.3,2.6-1.8,2.6c2,0,2.8,1.6-0.6,5.1c-2,2-4.7,3.2-7.7,3.2c-0.9,0-1.7-0.1-2.5-0.3V26c7.2,0.6,9.4-4.3,4.9-4.7
		C14.6,21,14.8,16.7,21.3,14.4z"/>
</g>
</svg>
