<svg xmlns="http://www.w3.org/2000/svg" width="24" height="24" viewBox="0 0 24 24">
  <path fill="#a5a5a5" d="M10.33 16.91c-.1 0-.21.02-.33.08a.64.64 0 00-.26.28c-.1.18-.11.37-.14.62a1.7 1.7 0 01-.41 1.04 1 1 0 01-.34.3.81.81 0 01-.41.03.82.82 0 01-.64-.34 2.26 2.26 0 01-.39-1.06c-.04-.25-.06-.44-.17-.63a.62.62 0 00-.29-.26.76.76 0 00-.3-.05.68.68 0 00-.6.39c-.09.18-.12.39-.14.63-.02.31-.2.77-.35.95a1.43 1.43 0 01-.52.36l-.06.02c-.02 0-.03 0 0 0-.3 0-.6.15-.75.41a.96.96 0 00-.03.85.6.6 0 00.35.34c.14.05.27.05.4.05.66 0 1.27-.4 1.72-.99a2.13 2.13 0 001.99.98 2.2 2.2 0 001.7-.98c.27.37.64.71 1.06.87.29.11.6.13.92.11a2 2 0 00.89-.24c.3-.18.57-.45.8-.74.45.6.99.94 1.68.98.35.02.64 0 .91-.1.41-.17.8-.5 1.07-.88.45.59 1.06.99 1.7.99.21 0 .44-.03.62-.2a.81.81 0 00.24-.62c0-.2-.06-.43-.24-.6a1 1 0 00-.58-.22 1.01 1.01 0 01-.63-.4 2.24 2.24 0 01-.36-.98c0-.22-.03-.42-.13-.6a.68.68 0 00-.6-.38c-.07 0-.18 0-.3.05a.62.62 0 00-.28.26c-.11.19-.13.38-.17.63-.11.76-.37 1.16-.72 1.33-.2.1-.39.12-.56.08a.96.96 0 01-.5-.34 1.7 1.7 0 01-.4-1.04 1.7 1.7 0 00-.15-.62.64.64 0 00-.25-.27.66.66 0 00-.33-.09.7.7 0 00-.61.34c-.12.2-.14.4-.17.64-.05.52-.13.7-.4 1.03-.25.29-.4.36-.68.36a.7.7 0 01-.37-.08 1.5 1.5 0 01-.36-.34c-.26-.34-.33-.52-.38-1.05-.02-.2-.05-.4-.17-.58a.7.7 0 00-.58-.32zM19.16 16.18h-4.62a.71.71 0 01-.71-.63l-.7-5.9c0-.12-.1-.24.13-.53.28-.25.5-.22.6-.22l5.9-.02c.11 0 .38 0 .65.22.24.24.21.5.21.6l-.76 5.81c-.06.37-.32.68-.7.67zm-3.37-1.37h2.23c.4 0 .56-.22.59-.5l.45-3.56c.05-.4-.13-.63-.4-.63l-3.36.03c-.47-.01-.6.3-.6.57l.43 3.66c.07.36.37.44.66.43z"/>
  <path fill="#a5a5a5" d="M15.06 2.84l-6-2.06a.9.9 0 00-1.09.4.73.73 0 00.44 1.01l1.96.72-2.3 4.66-1.18-.4c-1.38-.48-2.94-.03-3.48 1l-1.6 3.02c-.25.5-.24 1.06.05 1.57l1.25 2.22c.6 1.06 2.17 1.6 3.53 1.21l2.82-.82a2.27 2.27 0 001.43-1.07l1.57-3.01c.54-1.03-.15-2.25-1.53-2.73l-1.18-.4 2.34-4.66 2.26.74a.85.85 0 001.06-.4c.2-.35.13-.84-.35-1zm-4.73 8.88l-.7 1.38c-.3.55-.97.83-1.18.9l-2.26.65c-.45.14-1.25-.05-1.45-.4l-.77-1.52c-.33-.49-.44-.93-.12-1.5l1.08-1.95c.18-.34.86-.71 1.32-.56l.94.38-.2.5c-.18.34.05.75.5.9.24.08.5.09.72.01a.76.76 0 00.47-.35l.22-.47 1.08.37c.48.16.78.68.52 1.19zM16.93 10.84c-.68 0-1.23.53-1.23 1.2 0 .65.55 1.19 1.23 1.19.68 0 1.23-.54 1.23-1.2 0-.66-.55-1.2-1.23-1.2z"/>
  <path fill="#a5a5a5" d="M17.39 11.68c.04-.1.24-.21.35-.17l4.24 1.36c.1.05.19.21.14.32l-.25.73c-.05.11-.22.15-.33.1l-4.49-1.35c-.11-.05.01-.2.06-.3z"/>
</svg>
