<?xml version="1.0" encoding="UTF-8"?>
<svg version="1.1" viewBox="0 0 24 24" xmlns="http://www.w3.org/2000/svg" xmlns:cc="http://creativecommons.org/ns#" xmlns:dc="http://purl.org/dc/elements/1.1/" xmlns:rdf="http://www.w3.org/1999/02/22-rdf-syntax-ns#">
<metadata>
<rdf:RDF>
<cc:Work rdf:about="">
<dc:format>image/svg+xml</dc:format>
<dc:type rdf:resource="http://purl.org/dc/dcmitype/StillImage"/>
<dc:title/>
</cc:Work>
</rdf:RDF>
</metadata>
<path d="m10.719 1.2969c-0.55372 0.00151-1.1229 0.47828-0.87695 1.2012 0.48053 1.587 0.69127 1.2049 0.87849 2.5918 0.03552 0.26313 0.26166 2.3887 0.37932 2.7343 0.18017 0.62069 1.1262 2.121 1.209 3.0277 0.0472 0.5169-0.20117 2.2932-0.72021 2.2377-0.41112-0.044-1.5547-1.3543-2.0155-2.3329-0.34542-0.79967 0.51725-2.3114 0.77279-2.9891 0.38581-1.0401-1.2534-1.7269-1.6953-0.58789-0.20225 0.45827-0.30005 2.1211-0.90686 2.2718-0.25418 0.063132-0.61866-0.69446-0.67996-0.83257-0.36673-0.82626-0.54466-1.5499-0.76084-2.1658-0.37303-1.0448-2.0713-0.516-1.6777 0.64062 0.18026 0.621 0.78114 2.2876 1.2753 3.0517 0.65311 1.0099 1.9119 1.6807 2.795 2.5811 0.80811 0.82388 1.7036 1.6386 2.2578 2.6582 0.53462 0.98345 0.80351 2.1095 0.88071 3.0204 0.05155 0.72227-0.46744 2.2304-0.75375 3.0558-1.2834-0.0021-2.6382-0.0029-3.0117 2e-3 -1.1092 0.02302-1.0917 1.739-0.0625 1.7441 0.7214 7e-4 7.9107-0.01087 8.6856-2e-3 1.2344-0.01821 1.1311-1.6768-0.11639-1.683-0.21089-0.01405-2.7075-0.04092-3.6376-0.04749 0.33494-0.88843 0.42348-1.9488 0.97266-2.7031 1.0425-1.432 2.1982-2.661 3.52-3.5006 1.4285-0.68675 2.4496-2.6422 3.1245-4.5658 0.38581-1.0401-1.1208-1.7471-1.5627-0.60803-0.23608 0.53495-0.25689 0.62635-0.57307 1.5479-0.30229 0.78182-0.73135 1.5474-1.1018 1.0371-0.5248-0.72298-0.67459-1.3799-0.87182-1.9418-0.37303-1.0448-2.0713-0.516-1.6777 0.64062 0.15885 0.54722 0.94642 2.0647 0.5887 2.6916-0.30886 0.54128-0.472 0.81166-0.81135 1.1873-0.34385 0.39407-0.85057 0.97976-1.1869 0.9046-0.33632-0.07515-0.57583-0.37614-0.39426-1.1904s0.3195-1.143 0.74969-2.2957c0.09297-0.25064 0.30511-0.92099 0.36259-1.8391-0.01211-0.62771-0.04872-1.3149 0.258-1.6062 0.8762-0.83227 1.4849-0.86913 2.5624-1.4791 0.96417-0.54875 0.14889-1.9748-0.92182-1.3863-0.57258 0.28158-1.6749 1.2956-2.5963 1.2385-0.37708-0.023387-0.49745-0.85383-0.44753-1.4082 0.1068-1.186 0.48519-1.652 1.0622-2.2754 0.60678-0.97382-0.30513-1.8153-1.1227-1.1403-0.52963 0.60679-0.54756 1.1398-0.78217 0.88346-0.54485-0.5954-0.41925-1.3772-0.57054-1.8082-0.13988-0.39179-0.4666-0.56145-0.79883-0.56055z" stroke-width=".7424"/>
<path d="m17.257 19.33c-1.2012 0.02302-1.2826 1.7604-0.02543 1.7435 1.2233 0.01943 1.226-1.6903 0.02543-1.7435z" stroke-width=".47283"/>
<path d="m19.886 17.117c-1.4884 0.0085-1.6188 2.2547 0.01034 2.3206 1.6945-0.01833 1.6612-2.2791-0.01034-2.3206z" stroke-width=".62934"/>
<path d="m17.887 15.893c-0.78813 0.01511-0.84152 1.155-0.01669 1.1439 0.80263 0.01275 0.81885-1.167 0.01669-1.1439z" stroke-width=".31022"/>
<path d="m6.3792 14.599c-1.2012 0.02302-1.2826 1.7604-0.02543 1.7435 1.2233 0.01943 1.2481-1.7787 0.02543-1.7435z" stroke-width=".47283"/>
<path d="m5.026 12.799c-0.78813 0.01511-0.84152 1.155-0.01669 1.1439 0.80263 0.01275 0.81885-1.167 0.01669-1.1439z" stroke-width=".31022"/>
<path d="m17.599 3.0104c-0.78813 0.01511-0.84152 1.155-0.01669 1.1439 0.80263 0.01275 0.81885-1.167 0.01669-1.1439z" stroke-width=".31022"/>
</svg>
