<svg xmlns="http://www.w3.org/2000/svg" width="24" height="24" viewBox="0 0 24 24">
  <path d="M23.5 10.3c0 2.5-2.1 4.6-4.6 4.6 0 0-1.1.2-1.1-1.3 0-.5.4-1 1-1 1.2 0 2.3-.9 2.4-2.1.1-1.4-.9-2.5-2.3-2.5-.3 0-.6 0-.8.1l-1.3.5-.2-1.4c-.5-2.5-2.8-4.1-5.3-3.8-1.1.2-2.3.9-3 1.8l-.5.8-.6-.2c-.3-.1-.6-.1-.9-.1-2 0-3.5 1.5-3.5 3.4 0 1.6 1.1 3 2.7 3.3.5.1.8.5.8 1v.3c0 .6-.5 1.1-1.1 1C2.5 14.2.5 11.9.5 9c0-3.3 2.6-5.6 5.8-5.6h.6c1.3-1.5 3.2-2.3 5.2-2.3 2.9 0 5.5 1.8 6.4 4.6 4.9-.7 5 4.6 5 4.6zm-13.8 8h.3c.5 0 1-.4 1-1v-2.6c0-.5-.4-1-1-1h-.3a1 1 0 00-1 1v2.6c0 .5.4 1 1 1zm4.4 4.6h.3c.5 0 1-.4 1-1v-2.6c0-.5-.4-1-1-1h-.3a1 1 0 00-1 1v2.6c0 .5.5 1 1 1zm5.9-2.1v-2.6c0-.5-.4-1-1-1h-.3a1 1 0 00-1 1v2.6c0 .5.4 1 1 1h.3c.6 0 1-.5 1-1z"/>
</svg>
