<svg xmlns="http://www.w3.org/2000/svg" width="24" height="24" viewBox="0 0 24 24">
  <path d="M19.4 20.2h-6.2v-5.1h-2.1v7.2h10.3v-7.2h-2.1v5.1zM13.2 3.8h6.2v2.1h-4.1V8h4.1v2h2.1V1.7H11.2v8h2.1c-.1 0-.1-5.9-.1-5.9zm10.2 9.6c-.2.5-.8.8-1.3.6L19 13c-1.2-.4-2-.1-2.9.1l-2.1.7c-1.4.4-2.9.6-4.2-1.2L7.3 9c-.8-1-.4-1.4-1.7.4L4.7 11c-.9 1.4-2.5 3-2.5 3-.7 1-2.4-.2-1.4-1.2.6-.8 1.6-1.8 2.6-3.2s1.5-2.9 2.2-3.5c.9-.9 1.8-.6 2.8.9l2.9 4.1c.6 1 1.9.7 3 .4l1.5-.4c.9-.2 2.4-.7 4.2-.1l2.9 1c.4.2.7.8.5 1.4 0-.1 0 0 0 0z"/>
</svg>
